<?xml version="1.0" standalone="no"?>
 <!DOCTYPE svg PUBLIC "-//W3C//DTD SVG 1.1//EN" 
 "http://www.w3.org/Graphics/SVG/1.1/DTD/svg11.dtd"> 
<svg xmlns="http://www.w3.org/2000/svg" version="1.1" 
    width="29.7002cm" height="21.0007cm" viewBox="0 0 116930 82680 ">
<title>SVG Picture created as Placa_Teste-B_Cu.svg date 2020/07/17 22:40:23 </title>
  <desc>Picture generated by PCBNEW </desc>
<g style="fill:#000000; fill-opacity:1;stroke:#000000; stroke-opacity:1;
stroke-linecap:round; stroke-linejoin:round; "
 transform="translate(0 0) scale(1 1)">
</g>
<g style="fill:#000000; fill-opacity:0.0; 
stroke:#000000; stroke-width:-0.000393701; stroke-opacity:1; 
stroke-linecap:round; stroke-linejoin:round;">
</g>
<g style="fill:#000000; fill-opacity:0.0; 
stroke:#000000; stroke-width:19.685; stroke-opacity:1; 
stroke-linecap:round; stroke-linejoin:round;">
<path d="M65400 48000
L65400 50000
" />
<path d="M60600 48000
L60600 50000
" />
<path d="M65400 50000
L70500 50000
" />
<path d="M65400 48000
L60600 48000
" />
<circle cx="52900" cy="46700" r="300" /> 
<path d="M60600 30000
L50500 30000
" />
<path d="M70500 30000
L65400 30000
" />
<path d="M60600 32200
L60600 30000
" />
<path d="M65400 32200
L60600 32200
" />
<path d="M65400 30000
L65400 32200
" />
<circle cx="67100" cy="34100" r="300" /> 
<circle cx="65100" cy="36600" r="500" /> 
<circle cx="66600" cy="36600" r="500" /> 
<circle cx="68100" cy="36600" r="500" /> 
<path d="M50500 30000
L50500 50000
" />
<path d="M70500 50000
L70500 30000
" />
<path d="M50500 50000
L60600 50000
" />
<g >
</g>
<g style="fill:#000000; fill-opacity:1.0; 
stroke:#000000; stroke-width:0; stroke-opacity:1; 
stroke-linecap:round; stroke-linejoin:round;">
<circle cx="53190.6" cy="35400" r="236.22" /> 
</g>
<g style="fill:#000000; fill-opacity:1.0; 
stroke:#000000; stroke-width:19.685; stroke-opacity:1; 
stroke-linecap:round; stroke-linejoin:round;">
</g>
<g style="fill:#000000; fill-opacity:1.0; 
stroke:#000000; stroke-width:0; stroke-opacity:1; 
stroke-linecap:round; stroke-linejoin:round;">
<circle cx="52600" cy="35400" r="236.22" /> 
</g>
<g style="fill:#000000; fill-opacity:1.0; 
stroke:#000000; stroke-width:19.685; stroke-opacity:1; 
stroke-linecap:round; stroke-linejoin:round;">
</g>
<g >
</g>
<g style="fill:#000000; fill-opacity:1.0; 
stroke:#000000; stroke-width:19.685; stroke-opacity:1; 
stroke-linecap:round; stroke-linejoin:round;">
</g>
<g style="fill:#000000; fill-opacity:1.0; 
stroke:#000000; stroke-width:0; stroke-opacity:1; 
stroke-linecap:round; stroke-linejoin:round;">
<circle cx="58787.4" cy="41000" r="314.961" /> 
</g>
<g style="fill:#000000; fill-opacity:1.0; 
stroke:#000000; stroke-width:19.685; stroke-opacity:1; 
stroke-linecap:round; stroke-linejoin:round;">
</g>
<g style="fill:#000000; fill-opacity:1.0; 
stroke:#000000; stroke-width:0; stroke-opacity:1; 
stroke-linecap:round; stroke-linejoin:round;">
<circle cx="58000" cy="41000" r="314.961" /> 
</g>
<g style="fill:#000000; fill-opacity:1.0; 
stroke:#000000; stroke-width:19.685; stroke-opacity:1; 
stroke-linecap:round; stroke-linejoin:round;">
</g>
<g >
</g>
<g style="fill:#000000; fill-opacity:1.0; 
stroke:#000000; stroke-width:19.685; stroke-opacity:1; 
stroke-linecap:round; stroke-linejoin:round;">
</g>
<g style="fill:#000000; fill-opacity:1.0; 
stroke:#000000; stroke-width:0; stroke-opacity:1; 
stroke-linecap:round; stroke-linejoin:round;">
<path style="fill:#000000; fill-opacity:1.0; 
stroke:#000000; stroke-width:0; stroke-opacity:1; 
stroke-linecap:round; stroke-linejoin:round;fill-rule:evenodd;"
d="M 62448.8,41551.2
62448.8,40448.8
63551.2,40448.8
63551.2,41551.2
Z" /> 
</g>
<g style="fill:#000000; fill-opacity:1.0; 
stroke:#000000; stroke-width:1102.36; stroke-opacity:1; 
stroke-linecap:round; stroke-linejoin:round;">
</g>
<g style="fill:#000000; fill-opacity:0.0; 
stroke:#000000; stroke-width:1102.36; stroke-opacity:1; 
stroke-linecap:round; stroke-linejoin:round;">
<path d="M65000 41000
L65000 41000
" />
</g>
<g >
</g>
<g style="fill:#000000; fill-opacity:0.0; 
stroke:#000000; stroke-width:1102.36; stroke-opacity:1; 
stroke-linecap:round; stroke-linejoin:round;">
</g>
<g style="fill:#000000; fill-opacity:0.0; 
stroke:#000000; stroke-width:0; stroke-opacity:1; 
stroke-linecap:round; stroke-linejoin:round;">
</g>
<g style="fill:#000000; fill-opacity:1.0; 
stroke:#000000; stroke-width:0; stroke-opacity:1; 
stroke-linecap:round; stroke-linejoin:round;">
<path style="fill:#000000; fill-opacity:1.0; 
stroke:#000000; stroke-width:0; stroke-opacity:1; 
stroke-linecap:round; stroke-linejoin:round;fill-rule:evenodd;"
d="M 56177.2,31574.8
56177.2,32204.7
55547.2,32204.7
55547.2,31574.8
Z" /> 
</g>
<g style="fill:#000000; fill-opacity:1.0; 
stroke:#000000; stroke-width:629.921; stroke-opacity:1; 
stroke-linecap:round; stroke-linejoin:round;">
</g>
<g style="fill:#000000; fill-opacity:0.0; 
stroke:#000000; stroke-width:629.921; stroke-opacity:1; 
stroke-linecap:round; stroke-linejoin:round;">
<path d="M52862 31889
L52862 31889
" />
</g>
<g >
</g>
<g >
</g>
<g style="fill:#000000; fill-opacity:0.0; 
stroke:#000000; stroke-width:629.921; stroke-opacity:1; 
stroke-linecap:round; stroke-linejoin:round;">
</g>
<g style="fill:#000000; fill-opacity:0.0; 
stroke:#000000; stroke-width:98.4252; stroke-opacity:1; 
stroke-linecap:round; stroke-linejoin:round;">
<path d="M63492 46062
L54437 46062
" />
<path d="M54437 46062
L54043 46062
" />
<path d="M54043 46062
L52468 44488
" />
<path d="M63492 46062
L64673 46062
" />
<path d="M64673 46062
L67035 43700
" />
<path d="M67035 43700
L67035 39763
" />
<path d="M54830 38188
L54830 39763
" />
<path d="M54830 39763
L54437 39763
" />
<path d="M54437 39763
L53255 40944
" />
<path d="M61129 32677
L61129 35039
" />
</g>
<g style="fill:#000000; fill-opacity:0.0; 
stroke:#000000; stroke-width:393.701; stroke-opacity:1; 
stroke-linecap:round; stroke-linejoin:round;">
<path d="M64590 38582
L66133 37040
" />
<path d="M63885 38582
L64197 38582
" />
<path d="M64197 38582
L64590 38582
" />
<path d="M64673 32677
L67822 32677
" />
</g>
<g style="fill:#000000; fill-opacity:0.0; 
stroke:#000000; stroke-width:98.4252; stroke-opacity:1; 
stroke-linecap:round; stroke-linejoin:round;">
<path d="M58000 41000
L58000 42500
" />
<path d="M58000 42500
L58500 43000
" />
<path d="M58500 43000
L62500 43000
" />
<path d="M62500 43000
L63000 42500
" />
<path d="M63000 42500
L63000 41000
" />
<path d="M58787 39287
L58787 41000
" />
<path d="M53190 35400
L54900 35400
" />
<path d="M54900 35400
L58787 39287
" />
<path d="M52862 33464
L52600 33726
" />
<path d="M52600 33726
L52600 35400
" />
<path d="M52862 31889
L52862 33464
" />
<path d="M55862 31889
L56275 31889
" />
<path d="M56275 31889
L58767 34381
" />
<path d="M58767 34645
L58767 34767
" />
<path d="M58767 34381
L58767 34767
" />
<path d="M58767 34767
L65000 41000
" />
<path d="M58767 34512
L58767 34645
" />
</g>
<g >
</g>
<g style="fill:#000000; fill-opacity:0.0; 
stroke:#000000; stroke-width:98.4252; stroke-opacity:1; 
stroke-linecap:round; stroke-linejoin:round;">
</g>
<g style="fill:#000000; fill-opacity:1.0; 
stroke:#000000; stroke-width:100; stroke-opacity:1; 
stroke-linecap:round; stroke-linejoin:round;">
<path style="fill:#000000; fill-opacity:1.0; 
stroke:#000000; stroke-width:100; stroke-opacity:1; 
stroke-linecap:round; stroke-linejoin:round;fill-rule:evenodd;"
d="M 60500.8,32195.1
60500.3,32200
60502.2,32219.4
60507.9,32238.2
60516.5,32254.2
60517.1,32255.4
60529.5,32270.5
60544.6,32282.9
60561.8,32292.1
60580.6,32297.8
60600,32299.7
60604.9,32299.2
64229.5,32299.2
64229.5,38257.1
63869.8,38257.1
63822,38261.8
63760.6,38280.4
63704.1,38310.6
63654.5,38351.3
63613.8,38400.9
63583.6,38457.5
63564.9,38518.9
63558.7,38582.7
63564.9,38646.5
63583.6,38707.9
63613.8,38764.4
63654.5,38814
63704.1,38854.7
63760.6,38884.9
63822,38903.6
63869.8,38908.3
64229.5,38908.3
64229.5,39763.8
64230.5,39773.5
64233.3,39782.9
64238,39791.6
64244.2,39799.1
64251.7,39805.4
64260.4,39810
64269.8,39812.8
64279.5,39813.8
66857.5,39813.8
66857.5,43627.1
64599.5,45885
54117,45885
52588.2,44356.2
52567.8,44339.5
52536.9,44323
52503.4,44312.8
52468.5,44309.4
52433.6,44312.8
52400.1,44323
52369.2,44339.5
52342.1,44361.7
52319.8,44388.8
52303.3,44419.8
52293.1,44453.3
52289.7,44488.2
52293.1,44523.1
52303.3,44556.6
52319.8,44587.5
52336.5,44607.8
53911.3,46182.6
53916.9,46189.4
53944,46211.7
53974.9,46228.2
54000.6,46236
54008.4,46238.4
54043.3,46241.8
54052,46240.9
64664.5,46240.9
64673.2,46241.8
64682,46240.9
64708.1,46238.4
64741.7,46228.2
64772.6,46211.7
64799.7,46189.4
64805.2,46182.6
67155.1,43832.8
67161.9,43827.2
67184.1,43800.1
67200.6,43769.2
67210.8,43735.7
67213.4,43709.5
67213.4,43709.5
67214.2,43700.8
67213.4,43692
67213.4,39813.8
70400.8,39813.8
70400.8,49900.8
65499.2,49900.8
65499.2,48004.9
65499.7,48000
65497.8,47980.6
65492.1,47961.8
65482.9,47944.6
65470.5,47929.5
65455.4,47917.1
65438.2,47907.9
65419.4,47902.2
65404.9,47900.8
65404.9,47900.8
65400,47900.3
65395.1,47900.8
60604.9,47900.8
60600,47900.3
60595.1,47900.8
60580.6,47902.2
60561.8,47907.9
60544.6,47917.1
60529.5,47929.5
60517.1,47944.6
60507.9,47961.8
60502.2,47980.6
60500.3,48000
60500.8,48004.9
60500.8,49900.8
50599.2,49900.8
50599.2,46660.1
52494.9,46660.1
52494.9,46739.9
52510.4,46818.2
52541,46891.9
52585.3,46958.3
52641.7,47014.7
52708.1,47059
52781.8,47089.6
52860.1,47105.1
52939.9,47105.1
53018.2,47089.6
53091.9,47059
53158.3,47014.7
53214.7,46958.3
53259,46891.9
53289.6,46818.2
53305.1,46739.9
53305.1,46660.1
53289.6,46581.8
53259,46508.1
53214.7,46441.7
53158.3,46385.3
53091.9,46341
53018.2,46310.4
52939.9,46294.9
52860.1,46294.9
52781.8,46310.4
52708.1,46341
52641.7,46385.3
52585.3,46441.7
52541,46508.1
52510.4,46581.8
52494.9,46660.1
50599.2,46660.1
50599.2,40944.9
53077.1,40944.9
53080.5,40979.8
53090.7,41013.3
53107.2,41044.2
53129.5,41071.3
53156.6,41093.6
53187.5,41110.1
53221,41120.3
53255.9,41123.7
53290.8,41120.3
53324.3,41110.1
53355.2,41093.6
53375.6,41076.9
54510.7,39941.7
54822,39941.7
54830.7,39942.6
54839.5,39941.7
54865.6,39939.2
54899.1,39929
54930.1,39912.5
54957.1,39890.2
54979.4,39863.1
54995.9,39832.2
55006.1,39798.7
55009.5,39763.8
55008.7,39755
55008.7,38180.2
55006.1,38154.1
54995.9,38120.5
54979.4,38089.6
54957.1,38062.5
54930.1,38040.3
54899.1,38023.8
54865.6,38013.6
54830.7,38010.2
54795.8,38013.6
54762.3,38023.8
54731.4,38040.3
54704.3,38062.5
54682,38089.6
54665.5,38120.5
54655.3,38154.1
54652.8,38180.2
54652.8,39585.8
54445.8,39585.8
54437,39585
54402.1,39588.4
54368.6,39598.6
54337.7,39615.1
54310.6,39637.3
54305,39644.1
53123.9,40825.2
53107.2,40845.5
53090.7,40876.5
53080.5,40910
53077.1,40944.9
50599.2,40944.9
50599.2,35364.1
52235,35364.1
52235,35435.9
52249.1,35506.5
52276.6,35572.9
52316.5,35632.6
52367.4,35683.5
52427.1,35723.4
52493.5,35750.9
52564.1,35765
52635.9,35765
52706.5,35750.9
52772.9,35723.4
52832.6,35683.5
52883.5,35632.6
52895.3,35615
52907.1,35632.6
52957.9,35683.5
53017.7,35723.4
53084.1,35750.9
53154.6,35765
53226.5,35765
53297,35750.9
53363.4,35723.4
53423.2,35683.5
53474,35632.6
53510.6,35578
54826.3,35578
58609.4,39361.1
58609.4,40593.5
58577.2,40606.8
58504.6,40655.4
58442.8,40717.2
58394.2,40789.8
58393.7,40791
58393.2,40789.8
58344.6,40717.2
58282.8,40655.4
58210.2,40606.8
58129.4,40573.4
58043.7,40556.3
57956.3,40556.3
57870.6,40573.4
57789.8,40606.8
57717.2,40655.4
57655.4,40717.2
57606.8,40789.8
57573.4,40870.6
57556.3,40956.3
57556.3,41043.7
57573.4,41129.4
57606.8,41210.2
57655.4,41282.8
57717.2,41344.6
57789.8,41393.2
57822,41406.5
57822,42491.3
57821.2,42500
57824.6,42534.9
57834.8,42568.4
57834.8,42568.4
57851.3,42599.3
57873.6,42626.4
57880.4,42632
58368,43119.6
58373.6,43126.4
58400.7,43148.7
58431.6,43165.2
58457.3,43173
58465.1,43175.4
58500,43178.8
58508.7,43178
62491.3,43178
62500,43178.8
62508.7,43178
62534.9,43175.4
62568.4,43165.2
62599.3,43148.7
62626.4,43126.4
62632,43119.6
63119.7,42632
63126.4,42626.4
63148.7,42599.3
63165.2,42568.4
63175.4,42534.9
63178,42508.7
63178,42508.7
63178.8,42500
63178,42491.3
63178,41680.5
63551.2,41680.5
63576.4,41678.1
63600.7,41670.7
63623.1,41658.7
63642.7,41642.7
63658.7,41623.1
63670.7,41600.7
63678.1,41576.4
63680.5,41551.2
63680.5,40448.8
63678.1,40423.6
63670.7,40399.3
63658.7,40376.9
63642.7,40357.3
63623.1,40341.3
63600.7,40329.3
63576.4,40321.9
63551.2,40319.5
62448.8,40319.5
62423.6,40321.9
62399.3,40329.3
62376.9,40341.3
62357.3,40357.3
62341.3,40376.9
62329.3,40399.3
62321.9,40423.6
62319.5,40448.8
62319.5,41551.2
62321.9,41576.4
62329.3,41600.7
62341.3,41623.1
62357.3,41642.7
62376.9,41658.7
62399.3,41670.7
62423.6,41678.1
62448.8,41680.5
62822,41680.5
62822,42426.3
62426.3,42822
58573.7,42822
58178,42426.3
58178,41406.5
58210.2,41393.2
58282.8,41344.6
58344.6,41282.8
58393.2,41210.2
58393.7,41209
58394.2,41210.2
58442.8,41282.8
58504.6,41344.6
58577.2,41393.2
58658,41426.6
58743.7,41443.7
58831.1,41443.7
58916.8,41426.6
58997.6,41393.2
59070.2,41344.6
59132,41282.8
59180.6,41210.2
59214.1,41129.4
59231.1,41043.7
59231.1,40956.3
59214.1,40870.6
59180.6,40789.8
59132,40717.2
59070.2,40655.4
58997.6,40606.8
58965.4,40593.5
58965.4,39296.1
58966.2,39287.4
58962.8,39252.5
58952.6,39219
58936.1,39188.1
58913.8,39161
58907,39155.4
55032,35280.4
55026.4,35273.6
54999.3,35251.3
54968.4,35234.8
54934.9,35224.6
54908.7,35222
54900,35221.2
54891.3,35222
53510.6,35222
53474,35167.4
53423.2,35116.5
53363.4,35076.6
53297,35049.1
53226.5,35035
53154.6,35035
53084.1,35049.1
53017.7,35076.6
52957.9,35116.5
52907.1,35167.4
52895.3,35185
52883.5,35167.4
52832.6,35116.5
52778,35080
52778,33800.5
52981.9,33596.6
52988.6,33591
53010.9,33563.9
53027.4,33533
53037.6,33499.5
53040.2,33473.3
53041,33464.6
53040.2,33455.8
53040.2,32296.3
53072.4,32283
53145,32234.4
53206.8,32172.6
53255.4,32099.9
53288.9,32019.2
53305.9,31933.5
53305.9,31846.1
53288.9,31760.3
53255.4,31679.6
53206.8,31606.9
53174.7,31574.8
55417.9,31574.8
55417.9,32204.7
55420.4,32230
55427.7,32254.2
55439.7,32276.6
55455.8,32296.2
55475.4,32312.3
55497.7,32324.2
55522,32331.6
55547.2,32334.1
56177.2,32334.1
56202.4,32331.6
56226.7,32324.2
56249,32312.3
56268.6,32296.2
56284.7,32276.6
56296.7,32254.2
56304,32230
56306.5,32204.7
56306.5,32172.4
58589.8,34455.6
58589.8,34759
58588.9,34767.7
58592.3,34802.6
58602.5,34836.1
58602.5,34836.1
58619,34867.1
58641.3,34894.2
58648.1,34899.7
64409,40660.7
64397.5,40677.9
64346.2,40801.7
64320.1,40933
64320.1,41067
64346.2,41198.3
64397.5,41322.1
64471.9,41433.4
64566.6,41528.1
64677.9,41602.5
64801.7,41653.8
64933,41679.9
65067,41679.9
65198.3,41653.8
65322.1,41602.5
65433.4,41528.1
65528.1,41433.4
65602.5,41322.1
65653.8,41198.3
65679.9,41067
65679.9,40933
65653.8,40801.7
65602.5,40677.9
65528.1,40566.6
65433.4,40471.9
65322.1,40397.5
65198.3,40346.2
65067,40320.1
64933,40320.1
64801.7,40346.2
64677.9,40397.5
64660.7,40409
58945.7,34694
58945.7,34390.6
58946.5,34381.9
58943.1,34347
58932.9,34313.5
58916.4,34282.5
58894.2,34255.4
58887.4,34249.9
57305.9,32668.4
60952,32668.4
60952,35048.1
60954.5,35074.3
60964.7,35107.8
60981.2,35138.7
61003.5,35165.8
61030.6,35188
61061.5,35204.6
61095,35214.7
61129.9,35218.2
61164.8,35214.7
61198.4,35204.6
61229.3,35188
61256.4,35165.8
61278.6,35138.7
61295.1,35107.8
61305.3,35074.3
61307.9,35048.1
61307.9,32668.4
61305.3,32642.3
61295.1,32608.7
61278.6,32577.8
61256.4,32550.7
61229.3,32528.5
61198.3,32512
61164.8,32501.8
61129.9,32498.4
61095,32501.8
61061.5,32512
61030.6,32528.5
61003.5,32550.7
60981.2,32577.8
60964.7,32608.7
60954.5,32642.3
60952,32668.4
57305.9,32668.4
56407.6,31770.1
56402,31763.3
56374.9,31741.1
56344,31724.6
56310.5,31714.4
56306.5,31714
56306.5,31574.8
56304,31549.6
56296.7,31525.3
56284.7,31502.9
56268.6,31483.3
56249,31467.2
56226.7,31455.3
56202.4,31447.9
56177.2,31445.4
55547.2,31445.4
55522,31447.9
55497.7,31455.3
55475.4,31467.2
55455.8,31483.3
55439.7,31502.9
55427.7,31525.3
55420.4,31549.6
55417.9,31574.8
53174.7,31574.8
53145,31545.1
53072.4,31496.6
52991.6,31463.1
52905.9,31446.1
52818.5,31446.1
52732.8,31463.1
52652,31496.6
52579.4,31545.1
52517.6,31606.9
52469,31679.6
52435.6,31760.3
52418.5,31846.1
52418.5,31933.5
52435.6,32019.2
52469,32099.9
52517.6,32172.6
52579.4,32234.4
52652,32283
52684.3,32296.3
52684.3,33390.9
52480.4,33594.8
52473.6,33600.3
52451.3,33627.4
52434.8,33658.3
52434.8,33658.3
52424.6,33691.9
52421.2,33726.8
52422,33735.5
52422,35080
52367.4,35116.5
52316.5,35167.4
52276.6,35227.1
52249.1,35293.5
52235,35364.1
50599.2,35364.1
50599.2,30099.2
60500.8,30099.2
Z" /> 
</g>
</g>
<g style="fill:#FFFFFF; fill-opacity:1.0; 
stroke:#FFFFFF; stroke-width:100; stroke-opacity:1; 
stroke-linecap:round; stroke-linejoin:round;">
</g>
<g style="fill:#FFFFFF; fill-opacity:1.0; 
stroke:#FFFFFF; stroke-width:0; stroke-opacity:1; 
stroke-linecap:round; stroke-linejoin:round;">
<circle cx="53190.6" cy="35400" r="118.11" /> 
</g>
<g style="fill:#FFFFFF; fill-opacity:1.0; 
stroke:#FFFFFF; stroke-width:19.685; stroke-opacity:1; 
stroke-linecap:round; stroke-linejoin:round;">
</g>
<g style="fill:#FFFFFF; fill-opacity:1.0; 
stroke:#FFFFFF; stroke-width:0; stroke-opacity:1; 
stroke-linecap:round; stroke-linejoin:round;">
<circle cx="52600" cy="35400" r="118.11" /> 
</g>
<g style="fill:#FFFFFF; fill-opacity:1.0; 
stroke:#FFFFFF; stroke-width:19.685; stroke-opacity:1; 
stroke-linecap:round; stroke-linejoin:round;">
</g>
<g style="fill:#FFFFFF; fill-opacity:1.0; 
stroke:#FFFFFF; stroke-width:0; stroke-opacity:1; 
stroke-linecap:round; stroke-linejoin:round;">
<circle cx="58787.4" cy="41000" r="157.48" /> 
</g>
<g style="fill:#FFFFFF; fill-opacity:1.0; 
stroke:#FFFFFF; stroke-width:19.685; stroke-opacity:1; 
stroke-linecap:round; stroke-linejoin:round;">
</g>
<g style="fill:#FFFFFF; fill-opacity:1.0; 
stroke:#FFFFFF; stroke-width:0; stroke-opacity:1; 
stroke-linecap:round; stroke-linejoin:round;">
<circle cx="58000" cy="41000" r="157.48" /> 
</g>
<g style="fill:#FFFFFF; fill-opacity:1.0; 
stroke:#FFFFFF; stroke-width:19.685; stroke-opacity:1; 
stroke-linecap:round; stroke-linejoin:round;">
</g>
<g style="fill:#FFFFFF; fill-opacity:1.0; 
stroke:#FFFFFF; stroke-width:0; stroke-opacity:1; 
stroke-linecap:round; stroke-linejoin:round;">
<circle cx="63000" cy="41000" r="275.591" /> 
</g>
<g style="fill:#FFFFFF; fill-opacity:1.0; 
stroke:#FFFFFF; stroke-width:19.685; stroke-opacity:1; 
stroke-linecap:round; stroke-linejoin:round;">
</g>
<g style="fill:#FFFFFF; fill-opacity:1.0; 
stroke:#FFFFFF; stroke-width:0; stroke-opacity:1; 
stroke-linecap:round; stroke-linejoin:round;">
<circle cx="65000" cy="41000" r="275.591" /> 
</g>
<g style="fill:#FFFFFF; fill-opacity:1.0; 
stroke:#FFFFFF; stroke-width:19.685; stroke-opacity:1; 
stroke-linecap:round; stroke-linejoin:round;">
</g>
<g style="fill:#FFFFFF; fill-opacity:1.0; 
stroke:#FFFFFF; stroke-width:0; stroke-opacity:1; 
stroke-linecap:round; stroke-linejoin:round;">
<circle cx="55862.2" cy="31889.8" r="157.48" /> 
</g>
<g style="fill:#FFFFFF; fill-opacity:1.0; 
stroke:#FFFFFF; stroke-width:19.685; stroke-opacity:1; 
stroke-linecap:round; stroke-linejoin:round;">
</g>
<g style="fill:#FFFFFF; fill-opacity:1.0; 
stroke:#FFFFFF; stroke-width:0; stroke-opacity:1; 
stroke-linecap:round; stroke-linejoin:round;">
<circle cx="52862.2" cy="31889.8" r="157.48" /> 
</g>
<g style="fill:#FFFFFF; fill-opacity:1.0; 
stroke:#FFFFFF; stroke-width:19.685; stroke-opacity:1; 
stroke-linecap:round; stroke-linejoin:round;">
</g>
<g style="fill:#000000; fill-opacity:1.0; 
stroke:#000000; stroke-width:19.685; stroke-opacity:1; 
stroke-linecap:round; stroke-linejoin:round;">
</g> 
</svg>
