<?xml version="1.0" standalone="no"?>
 <!DOCTYPE svg PUBLIC "-//W3C//DTD SVG 1.1//EN" 
 "http://www.w3.org/Graphics/SVG/1.1/DTD/svg11.dtd"> 
<svg xmlns="http://www.w3.org/2000/svg" version="1.1" 
    width="29.7002cm" height="21.0007cm" viewBox="0 0 116930 82680 ">
<title>SVG Picture created as Placa_Teste-F_SilkS.svg date 2020/07/17 10:44:37 </title>
  <desc>Picture generated by PCBNEW </desc>
<g style="fill:#000000; fill-opacity:1;stroke:#000000; stroke-opacity:1;
stroke-linecap:round; stroke-linejoin:round; "
 transform="translate(0 0) scale(1 1)">
</g>
<g style="fill:#000000; fill-opacity:0.0; 
stroke:#000000; stroke-width:-0.000393701; stroke-opacity:1; 
stroke-linecap:round; stroke-linejoin:round;">
</g>
<g style="fill:#000000; fill-opacity:0.0; 
stroke:#000000; stroke-width:78.7402; stroke-opacity:1; 
stroke-linecap:round; stroke-linejoin:round;">
<path d="M60342 45669
L58374 45669
" />
<path d="M60342 44881
L60342 45669
" />
<path d="M58374 44881
L60342 44881
" />
<path d="M58374 46850
L58374 44881
" />
<text x="67822.8" y="45078.7"
textLength="845.426" font-size="524.934" lengthAdjust="spacingAndGlyphs"
text-anchor="middle" opacity="0">D2</text>
<path d="M67532 45059
L67532 44666
L67625 44666
L67682 44685
L67719 44722
L67738 44760
L67757 44835
L67757 44891
L67738 44966
L67719 45003
L67682 45041
L67625 45059
L67532 45059
" />
<path d="M67907 44703
L67925 44685
L67963 44666
L68057 44666
L68094 44685
L68113 44703
L68132 44741
L68132 44778
L68113 44835
L67888 45059
L68132 45059
" />
</g>
<g style="fill:#000000; fill-opacity:0.0; 
stroke:#000000; stroke-width:47.2441; stroke-opacity:1; 
stroke-linecap:round; stroke-linejoin:round;">
<path d="M67429 47244
L67429 45669
" />
</g>
<g style="fill:#000000; fill-opacity:0.0; 
stroke:#000000; stroke-width:39.3701; stroke-opacity:1; 
stroke-linecap:round; stroke-linejoin:round;">
</g>
<g style="fill:#000000; fill-opacity:1.0; 
stroke:#000000; stroke-width:39.3701; stroke-opacity:1; 
stroke-linecap:round; stroke-linejoin:round;">
<path style="fill:#000000; fill-opacity:1.0; 
stroke:#000000; stroke-width:39.3701; stroke-opacity:1; 
stroke-linecap:round; stroke-linejoin:round;fill-rule:evenodd;"
d="M 68216.5,46063
67429.1,46063
67429.1,45669.3
68216.5,45669.3
Z" /> 
</g>
<g style="fill:#000000; fill-opacity:1.0; 
stroke:#000000; stroke-width:47.2441; stroke-opacity:1; 
stroke-linecap:round; stroke-linejoin:round;">
</g>
<g style="fill:#000000; fill-opacity:0.0; 
stroke:#000000; stroke-width:47.2441; stroke-opacity:1; 
stroke-linecap:round; stroke-linejoin:round;">
<path d="M68216 45669
L68216 46062
" />
<path d="M68216 47244
L67429 47244
" />
<path d="M68216 46062
L68216 47244
" />
</g>
<g style="fill:#000000; fill-opacity:0.0; 
stroke:#000000; stroke-width:78.7402; stroke-opacity:1; 
stroke-linecap:round; stroke-linejoin:round;">
<text x="55618.1" y="34055.1"
textLength="871.016" font-size="524.934" lengthAdjust="spacingAndGlyphs"
text-anchor="middle" opacity="0">D1</text>
<path d="M55327 34036
L55327 33642
L55421 33642
L55477 33661
L55514 33698
L55533 33736
L55552 33811
L55552 33867
L55533 33942
L55514 33980
L55477 34017
L55421 34036
L55327 34036
" />
<path d="M55927 34036
L55702 34036
" />
<path d="M55814 34036
L55814 33642
L55777 33698
L55739 33736
L55702 33755
" />
</g>
<g style="fill:#000000; fill-opacity:0.0; 
stroke:#000000; stroke-width:39.3701; stroke-opacity:1; 
stroke-linecap:round; stroke-linejoin:round;">
</g>
<g style="fill:#000000; fill-opacity:1.0; 
stroke:#000000; stroke-width:39.3701; stroke-opacity:1; 
stroke-linecap:round; stroke-linejoin:round;">
<path style="fill:#000000; fill-opacity:1.0; 
stroke:#000000; stroke-width:39.3701; stroke-opacity:1; 
stroke-linecap:round; stroke-linejoin:round;fill-rule:evenodd;"
d="M 53255.9,34252
52862.2,34252
52862.2,33464.6
53255.9,33464.6
Z" /> 
</g>
<g style="fill:#000000; fill-opacity:1.0; 
stroke:#000000; stroke-width:47.2441; stroke-opacity:1; 
stroke-linecap:round; stroke-linejoin:round;">
</g>
<g style="fill:#000000; fill-opacity:0.0; 
stroke:#000000; stroke-width:47.2441; stroke-opacity:1; 
stroke-linecap:round; stroke-linejoin:round;">
<path d="M52862 33464
L53255 33464
" />
<path d="M52862 34251
L52862 33464
" />
<path d="M54437 34251
L52862 34251
" />
<path d="M54437 33464
L54437 34251
" />
<path d="M53255 33464
L54437 33464
" />
</g>
<g style="fill:#000000; fill-opacity:0.0; 
stroke:#000000; stroke-width:78.7402; stroke-opacity:1; 
stroke-linecap:round; stroke-linejoin:round;">
<text x="68216.5" y="35629.9"
textLength="1283.46" font-size="524.934" lengthAdjust="spacingAndGlyphs"
text-anchor="middle" opacity="0">CN4</text>
<path d="M67944 35573
L67925 35592
L67869 35611
L67832 35611
L67775 35592
L67738 35554
L67719 35517
L67700 35442
L67700 35386
L67719 35311
L67738 35273
L67775 35236
L67832 35217
L67869 35217
L67925 35236
L67944 35254
" />
<path d="M68113 35611
L68113 35217
L68338 35611
L68338 35217
" />
<path d="M68694 35348
L68694 35611
" />
<path d="M68600 35198
L68507 35479
L68750 35479
" />
<text x="66641.7" y="35629.9"
textLength="1283.46" font-size="524.934" lengthAdjust="spacingAndGlyphs"
text-anchor="middle" opacity="0">CN3</text>
<path d="M66369 35573
L66351 35592
L66294 35611
L66257 35611
L66201 35592
L66163 35554
L66144 35517
L66126 35442
L66126 35386
L66144 35311
L66163 35273
L66201 35236
L66257 35217
L66294 35217
L66351 35236
L66369 35254
" />
<path d="M66538 35611
L66538 35217
L66763 35611
L66763 35217
" />
<path d="M66913 35217
L67157 35217
L67026 35367
L67082 35367
L67119 35386
L67138 35404
L67157 35442
L67157 35536
L67138 35573
L67119 35592
L67082 35611
L66969 35611
L66932 35592
L66913 35573
" />
<text x="65066.9" y="35629.9"
textLength="1283.46" font-size="524.934" lengthAdjust="spacingAndGlyphs"
text-anchor="middle" opacity="0">CN6</text>
<path d="M64795 35573
L64776 35592
L64720 35611
L64682 35611
L64626 35592
L64588 35554
L64570 35517
L64551 35442
L64551 35386
L64570 35311
L64588 35273
L64626 35236
L64682 35217
L64720 35217
L64776 35236
L64795 35254
" />
<path d="M64963 35611
L64963 35217
L65188 35611
L65188 35217
" />
<path d="M65544 35217
L65470 35217
L65432 35236
L65413 35254
L65376 35311
L65357 35386
L65357 35536
L65376 35573
L65395 35592
L65432 35611
L65507 35611
L65544 35592
L65563 35573
L65582 35536
L65582 35442
L65563 35404
L65544 35386
L65507 35367
L65432 35367
L65395 35386
L65376 35404
L65357 35442
" />
</g>
<g style="fill:#000000; fill-opacity:0.0; 
stroke:#000000; stroke-width:19.685; stroke-opacity:1; 
stroke-linecap:round; stroke-linejoin:round;">
<path d="M65400 48000
L65400 50000
" />
<path d="M60600 48000
L60600 50000
" />
<path d="M65400 50000
L70500 50000
" />
<path d="M65400 48000
L60600 48000
" />
<circle cx="52900" cy="46700" r="300" /> 
<path d="M60600 30000
L50500 30000
" />
<path d="M70500 30000
L65400 30000
" />
<path d="M60600 32200
L60600 30000
" />
<path d="M65400 32200
L60600 32200
" />
<path d="M65400 30000
L65400 32200
" />
<circle cx="67100" cy="34100" r="300" /> 
<circle cx="65100" cy="36600" r="500" /> 
<circle cx="66600" cy="36600" r="500" /> 
<circle cx="68100" cy="36600" r="500" /> 
<path d="M50500 30000
L50500 50000
" />
<path d="M70500 50000
L70500 30000
" />
<path d="M50500 50000
L60600 50000
" />
</g>
<g style="fill:#000000; fill-opacity:0.0; 
stroke:#000000; stroke-width:47.2441; stroke-opacity:1; 
stroke-linecap:round; stroke-linejoin:round;">
<circle cx="52895.3" cy="35400" r="834.646" /> 
<circle cx="58393.7" cy="41000" r="1031.5" /> 
<circle cx="63000" cy="41000" r="856.259" /> 
<path d="M63856 41000
L64330 41000
" />
<path d="M55196 32330
L55196 31448
" />
<path d="M55196 31448
L53527 31448
" />
<path d="M53527 31448
L53527 32330
" />
<path d="M53527 32330
L55196 32330
" />
<path d="M55452 31889
L55196 31889
" />
<path d="M53271 31889
L53527 31889
" />
<path d="M54913 32330
L54913 31448
" />
<path d="M54866 32330
L54866 31448
" />
<path d="M54960 32330
L54960 31448
" />
<g >
</g>
<g >
</g>
<g >
</g>
<g >
</g>
</g>
<g style="fill:#000000; fill-opacity:0.0; 
stroke:#000000; stroke-width:47.2441; stroke-opacity:1; 
stroke-linecap:round; stroke-linejoin:round;">
</g>
<g style="fill:#000000; fill-opacity:0.0; 
stroke:#000000; stroke-width:59.0551; stroke-opacity:1; 
stroke-linecap:round; stroke-linejoin:round;">
<text x="54043.3" y="34842.5"
textLength="871.016" font-size="524.934" lengthAdjust="spacingAndGlyphs"
text-anchor="middle" opacity="0">C3</text>
<path d="M53977 34786
L53958 34805
L53902 34823
L53865 34823
L53808 34805
L53771 34767
L53752 34730
L53733 34655
L53733 34598
L53752 34523
L53771 34486
L53808 34448
L53865 34430
L53902 34430
L53958 34448
L53977 34467
" />
<path d="M54108 34430
L54352 34430
L54221 34580
L54277 34580
L54315 34598
L54333 34617
L54352 34655
L54352 34748
L54333 34786
L54315 34805
L54277 34823
L54165 34823
L54127 34805
L54108 34786
" />
<text x="58393.7" y="39720.5"
textLength="845.426" font-size="524.934" lengthAdjust="spacingAndGlyphs"
text-anchor="middle" opacity="0">C1</text>
<path d="M58328 39664
L58309 39682
L58253 39701
L58215 39701
L58159 39682
L58121 39645
L58103 39607
L58084 39532
L58084 39476
L58103 39401
L58121 39364
L58159 39326
L58215 39308
L58253 39308
L58309 39326
L58328 39345
" />
<path d="M58703 39701
L58478 39701
" />
<path d="M58590 39701
L58590 39308
L58553 39364
L58515 39401
L58478 39420
" />
<text x="64000" y="39946.9"
textLength="845.426" font-size="524.934" lengthAdjust="spacingAndGlyphs"
text-anchor="middle" opacity="0">D7</text>
<path d="M63709 39928
L63709 39534
L63803 39534
L63859 39553
L63896 39590
L63915 39628
L63934 39703
L63934 39759
L63915 39834
L63896 39871
L63859 39909
L63803 39928
L63709 39928
" />
<path d="M64065 39534
L64328 39534
L64159 39928
" />
<text x="64173.2" y="41748"
textLength="414.23" font-size="524.934" lengthAdjust="spacingAndGlyphs"
text-anchor="middle" opacity="0">A</text>
<path d="M64079 41616
L64266 41616
" />
<path d="M64041 41729
L64173 41335
L64304 41729
" />
<text x="54362.2" y="32921.3"
textLength="845.426" font-size="524.934" lengthAdjust="spacingAndGlyphs"
text-anchor="middle" opacity="0">D3</text>
<path d="M54071 32902
L54071 32508
L54165 32508
L54221 32527
L54259 32565
L54277 32602
L54296 32677
L54296 32733
L54277 32808
L54259 32846
L54221 32883
L54165 32902
L54071 32902
" />
<path d="M54427 32508
L54671 32508
L54540 32658
L54596 32658
L54634 32677
L54652 32696
L54671 32733
L54671 32827
L54652 32865
L54634 32883
L54596 32902
L54484 32902
L54446 32883
L54427 32865
" />
<text x="55862.2" y="32795.3"
textLength="470.472" font-size="524.934" lengthAdjust="spacingAndGlyphs"
text-anchor="middle" opacity="0">K</text>
<path d="M55759 32776
L55759 32382
" />
<path d="M55984 32776
L55815 32551
" />
<path d="M55984 32382
L55759 32607
" />
<g >
</g>
</g> 
</svg>
