<?xml version="1.0" standalone="no"?>
 <!DOCTYPE svg PUBLIC "-//W3C//DTD SVG 1.1//EN" 
 "http://www.w3.org/Graphics/SVG/1.1/DTD/svg11.dtd"> 
<svg xmlns="http://www.w3.org/2000/svg" version="1.1" 
    width="29.7002cm" height="21.0007cm" viewBox="0 0 116930 82680 ">
<title>SVG Picture created as Placa_Teste-F_Mask.svg date 2020/07/17 10:44:37 </title>
  <desc>Picture generated by PCBNEW </desc>
<g style="fill:#000000; fill-opacity:1;stroke:#000000; stroke-opacity:1;
stroke-linecap:round; stroke-linejoin:round; "
 transform="translate(0 0) scale(1 1)">
</g>
<g style="fill:#000000; fill-opacity:0.0; 
stroke:#000000; stroke-width:-0.000393701; stroke-opacity:1; 
stroke-linecap:round; stroke-linejoin:round;">
</g>
<g style="fill:#000000; fill-opacity:0.0; 
stroke:#000000; stroke-width:19.685; stroke-opacity:1; 
stroke-linecap:round; stroke-linejoin:round;">
<path d="M65400 48000
L65400 50000
" />
<path d="M60600 48000
L60600 50000
" />
<path d="M65400 50000
L70500 50000
" />
<path d="M65400 48000
L60600 48000
" />
<circle cx="52900" cy="46700" r="300" /> 
<path d="M60600 30000
L50500 30000
" />
<path d="M70500 30000
L65400 30000
" />
<path d="M60600 32200
L60600 30000
" />
<path d="M65400 32200
L60600 32200
" />
<path d="M65400 30000
L65400 32200
" />
<circle cx="67100" cy="34100" r="300" /> 
<circle cx="65100" cy="36600" r="500" /> 
<circle cx="66600" cy="36600" r="500" /> 
<circle cx="68100" cy="36600" r="500" /> 
<path d="M50500 30000
L50500 50000
" />
<path d="M70500 50000
L70500 30000
" />
<path d="M50500 50000
L60600 50000
" />
</g>
<g style="fill:#000000; fill-opacity:1.0; 
stroke:#000000; stroke-width:0; stroke-opacity:1; 
stroke-linecap:round; stroke-linejoin:round;">
<path style="fill:#000000; fill-opacity:1.0; 
stroke:#000000; stroke-width:0; stroke-opacity:1; 
stroke-linecap:round; stroke-linejoin:round;fill-rule:evenodd;"
d="M 63571.3,41571.3
62428.7,41571.3
62428.7,40428.7
63571.3,40428.7
Z" /> 
<path style="fill:#000000; fill-opacity:1.0; 
stroke:#000000; stroke-width:0; stroke-opacity:1; 
stroke-linecap:round; stroke-linejoin:round;fill-rule:evenodd;"
d="M 65166.6,40450.7
65270.6,40493.8
65364.2,40556.3
65443.7,40635.8
65506.2,40729.4
65549.3,40833.4
65571.3,40943.7
65571.3,41056.3
65549.3,41166.6
65506.2,41270.6
65443.7,41364.2
65364.2,41443.7
65270.6,41506.2
65166.6,41549.3
65056.3,41571.3
64943.7,41571.3
64833.4,41549.3
64729.4,41506.2
64635.8,41443.7
64556.3,41364.2
64493.8,41270.6
64450.7,41166.6
64428.7,41056.3
64428.7,40943.7
64450.7,40833.4
64493.8,40729.4
64556.3,40635.8
64635.8,40556.3
64729.4,40493.8
64833.4,40450.7
64943.7,40428.7
65056.3,40428.7
Z" /> 
<path style="fill:#000000; fill-opacity:1.0; 
stroke:#000000; stroke-width:0; stroke-opacity:1; 
stroke-linecap:round; stroke-linejoin:round;fill-rule:evenodd;"
d="M 58885.1,40677.8
58946.1,40703.1
59001,40739.8
59047.6,40786.4
59084.3,40841.3
59109.6,40902.3
59122.4,40967
59122.4,41033
59109.6,41097.7
59084.3,41158.7
59047.6,41213.6
59001,41260.2
58946.1,41296.9
58885.1,41322.2
58820.4,41335
58754.4,41335
58689.7,41322.2
58628.7,41296.9
58573.8,41260.2
58527.2,41213.6
58490.5,41158.7
58465.2,41097.7
58452.4,41033
58452.4,40967
58465.2,40902.3
58490.5,40841.3
58527.2,40786.4
58573.8,40739.8
58628.7,40703.1
58689.7,40677.8
58754.4,40665
58820.4,40665
Z" /> 
<path style="fill:#000000; fill-opacity:1.0; 
stroke:#000000; stroke-width:0; stroke-opacity:1; 
stroke-linecap:round; stroke-linejoin:round;fill-rule:evenodd;"
d="M 58097.7,40677.8
58158.7,40703.1
58213.6,40739.8
58260.2,40786.4
58296.9,40841.3
58322.2,40902.3
58335,40967
58335,41033
58322.2,41097.7
58296.9,41158.7
58260.2,41213.6
58213.6,41260.2
58158.7,41296.9
58097.7,41322.2
58033,41335
57967,41335
57902.3,41322.2
57841.3,41296.9
57786.4,41260.2
57739.8,41213.6
57703.1,41158.7
57677.8,41097.7
57665,41033
57665,40967
57677.8,40902.3
57703.1,40841.3
57739.8,40786.4
57786.4,40739.8
57841.3,40703.1
57902.3,40677.8
57967,40665
58033,40665
Z" /> 
<path style="fill:#000000; fill-opacity:1.0; 
stroke:#000000; stroke-width:0; stroke-opacity:1; 
stroke-linecap:round; stroke-linejoin:round;fill-rule:evenodd;"
d="M 52674.8,35153.6
52721.4,35172.9
52763.4,35200.9
52799.1,35236.6
52827.1,35278.6
52846.4,35325.2
52847,35328.1
52849.8,35337.3
52854.4,35345.8
52860.5,35353.2
52867.9,35359.4
52876.4,35363.9
52885.7,35366.7
52895.3,35367.7
52904.9,35366.7
52914.1,35363.9
52922.6,35359.4
52930.1,35353.2
52936.2,35345.8
52940.7,35337.3
52943.5,35328.1
52944.1,35325.2
52963.4,35278.6
52991.5,35236.6
53027.2,35200.9
53069.1,35172.9
53115.8,35153.6
53165.3,35143.7
53215.8,35143.7
53265.3,35153.6
53312,35172.9
53353.9,35200.9
53389.6,35236.6
53417.7,35278.6
53437,35325.2
53446.9,35374.8
53446.9,35425.2
53441.1,35454.2
53437,35474.8
53417.7,35521.4
53389.6,35563.4
53353.9,35599.1
53312,35627.1
53312,35627.1
53312,35627.1
53265.3,35646.4
53215.8,35656.3
53165.3,35656.3
53115.8,35646.4
53069.1,35627.1
53069.1,35627.1
53069.1,35627.1
53027.2,35599.1
52991.5,35563.4
52963.4,35521.4
52944.1,35474.8
52943.5,35471.9
52940.7,35462.7
52936.2,35454.2
52930.1,35446.8
52922.6,35440.6
52914.1,35436.1
52904.9,35433.3
52895.3,35432.3
52885.7,35433.3
52876.4,35436.1
52867.9,35440.6
52860.5,35446.8
52854.4,35454.2
52849.8,35462.7
52847,35471.9
52846.4,35474.8
52827.1,35521.4
52799.1,35563.4
52763.4,35599.1
52721.4,35627.1
52721.4,35627.1
52721.4,35627.1
52674.8,35646.4
52625.2,35656.3
52574.8,35656.3
52525.2,35646.4
52478.6,35627.1
52478.6,35627.1
52478.6,35627.1
52436.6,35599.1
52400.9,35563.4
52372.9,35521.4
52353.6,35474.8
52349.5,35454.2
52343.7,35425.2
52343.7,35374.8
52353.6,35325.2
52372.9,35278.6
52400.9,35236.6
52436.6,35200.9
52478.6,35172.9
52525.2,35153.6
52574.8,35143.7
52625.2,35143.7
Z" /> 
<path style="fill:#000000; fill-opacity:1.0; 
stroke:#000000; stroke-width:0; stroke-opacity:1; 
stroke-linecap:round; stroke-linejoin:round;fill-rule:evenodd;"
d="M 52959.9,31567.6
53020.9,31592.9
53075.8,31629.5
53122.4,31676.2
53159.1,31731.1
53184.4,31792
53197.2,31856.8
53197.2,31922.8
53184.4,31987.5
53159.1,32048.5
53122.4,32103.3
53075.8,32150
53020.9,32186.7
52959.9,32211.9
52895.2,32224.8
52829.2,32224.8
52764.5,32211.9
52703.5,32186.7
52648.6,32150
52602,32103.3
52565.3,32048.5
52540,31987.5
52527.2,31922.8
52527.2,31856.8
52540,31792
52565.3,31731.1
52602,31676.2
52648.6,31629.5
52703.5,31592.9
52764.5,31567.6
52829.2,31554.7
52895.2,31554.7
Z" /> 
<path style="fill:#000000; fill-opacity:1.0; 
stroke:#000000; stroke-width:0; stroke-opacity:1; 
stroke-linecap:round; stroke-linejoin:round;fill-rule:evenodd;"
d="M 56197.2,32224.8
55527.2,32224.8
55527.2,31554.7
56197.2,31554.7
Z" /> 
</g> 
</svg>
