<?xml version="1.0" standalone="no"?>
 <!DOCTYPE svg PUBLIC "-//W3C//DTD SVG 1.1//EN" 
 "http://www.w3.org/Graphics/SVG/1.1/DTD/svg11.dtd"> 
<svg xmlns="http://www.w3.org/2000/svg" version="1.1" 
    width="29.7002cm" height="21.0007cm" viewBox="0 0 116930 82680 ">
<title>SVG Picture created as Placa_Teste-F_Paste.svg date 2020/07/17 10:44:37 </title>
  <desc>Picture generated by PCBNEW </desc>
<g style="fill:#000000; fill-opacity:1;stroke:#000000; stroke-opacity:1;
stroke-linecap:round; stroke-linejoin:round; "
 transform="translate(0 0) scale(1 1)">
</g>
<g style="fill:#000000; fill-opacity:0.0; 
stroke:#000000; stroke-width:-0.000393701; stroke-opacity:1; 
stroke-linecap:round; stroke-linejoin:round;">
</g>
<g style="fill:#000000; fill-opacity:0.0; 
stroke:#000000; stroke-width:19.685; stroke-opacity:1; 
stroke-linecap:round; stroke-linejoin:round;">
<path d="M65400 48000
L65400 50000
" />
<path d="M60600 48000
L60600 50000
" />
<path d="M65400 50000
L70500 50000
" />
<path d="M65400 48000
L60600 48000
" />
<circle cx="52900" cy="46700" r="300" /> 
<path d="M60600 30000
L50500 30000
" />
<path d="M70500 30000
L65400 30000
" />
<path d="M60600 32200
L60600 30000
" />
<path d="M65400 32200
L60600 32200
" />
<path d="M65400 30000
L65400 32200
" />
<circle cx="67100" cy="34100" r="300" /> 
<circle cx="65100" cy="36600" r="500" /> 
<circle cx="66600" cy="36600" r="500" /> 
<circle cx="68100" cy="36600" r="500" /> 
<path d="M50500 30000
L50500 50000
" />
<path d="M70500 50000
L70500 30000
" />
<path d="M50500 50000
L60600 50000
" />
<g >
</g>
<g >
</g>
<g >
</g>
<g >
</g>
<g >
</g>
<g >
</g>
<g >
</g>
</g> 
</svg>
