<?xml version="1.0" standalone="no"?>
 <!DOCTYPE svg PUBLIC "-//W3C//DTD SVG 1.1//EN" 
 "http://www.w3.org/Graphics/SVG/1.1/DTD/svg11.dtd"> 
<svg xmlns="http://www.w3.org/2000/svg" version="1.1" 
    width="29.7002cm" height="21.0007cm" viewBox="0 0 116930 82680 ">
<title>SVG Picture created as UNO-TH_Rev3e-B_SilkS.svg date 2020/09/01 00:33:08 </title>
  <desc>Picture generated by PCBNEW </desc>
<g style="fill:#000000; fill-opacity:1;stroke:#000000; stroke-opacity:1;
stroke-linecap:round; stroke-linejoin:round; "
 transform="translate(0 0) scale(1 1)">
</g>
<g style="fill:#000000; fill-opacity:0.0; 
stroke:#000000; stroke-width:-0.000393701; stroke-opacity:1; 
stroke-linecap:round; stroke-linejoin:round;">
</g>
<g style="fill:#000000; fill-opacity:0.0; 
stroke:#000000; stroke-width:100; stroke-opacity:1; 
stroke-linecap:round; stroke-linejoin:round;">
<path d="M70365 30840
L70965 31440
" />
<path d="M70965 35940
L71965 36940
" />
<path d="M71965 36940
L71965 49840
" />
<path d="M71965 49840
L70965 50840
" />
<path d="M70965 50840
L70965 51446
" />
<path d="M70571.3 51840 A393.701 393.701 0.0 0 0 70965 51446.3 " />
<path d="M70571 51840
L45358 51840
" />
<path d="M44965 51446.3 A393.701 393.701 0.0 0 0 45358.7 51840 " />
<path d="M44965 51446
L44965 31233
" />
<path d="M45358.7 30840 A393.701 393.701 0.0 0 0 44965 31233.7 " />
<path d="M45358 30840
L70365 30840
" />
<path d="M70965 31440
L70965 35940
" />
</g>
<g style="fill:#000000; fill-opacity:0.0; 
stroke:#000000; stroke-width:67.2; stroke-opacity:1; 
stroke-linecap:round; stroke-linejoin:round;">
<text x="61315" y="34140"
textLength="-4754.28" font-size="-709.333" lengthAdjust="spacingAndGlyphs"
text-anchor="start" opacity="0">designed by</text>
<path d="M60916 34114
L60916 33582
" />
<path d="M60916 34089
L60967 34114
L61068 34114
L61119 34089
L61144 34064
L61169 34013
L61169 33861
L61144 33810
L61119 33785
L61068 33760
L60967 33760
L60916 33785
" />
<path d="M60460 34089
L60511 34114
L60612 34114
L60663 34089
L60688 34038
L60688 33836
L60663 33785
L60612 33760
L60511 33760
L60460 33785
L60435 33836
L60435 33886
L60688 33937
" />
<path d="M60232 34089
L60181 34114
L60080 34114
L60029 34089
L60004 34038
L60004 34013
L60029 33962
L60080 33937
L60156 33937
L60207 33912
L60232 33861
L60232 33836
L60207 33785
L60156 33760
L60080 33760
L60029 33785
" />
<path d="M59776 34114
L59776 33760
" />
<path d="M59776 33582
L59801 33608
L59776 33633
L59751 33608
L59776 33582
L59776 33633
" />
<path d="M59295 33760
L59295 34190
L59320 34241
L59345 34266
L59396 34292
L59472 34292
L59523 34266
" />
<path d="M59295 34089
L59345 34114
L59447 34114
L59497 34089
L59523 34064
L59548 34013
L59548 33861
L59523 33810
L59497 33785
L59447 33760
L59345 33760
L59295 33785
" />
<path d="M59041 33760
L59041 34114
" />
<path d="M59041 33810
L59016 33785
L58965 33760
L58889 33760
L58839 33785
L58813 33836
L58813 34114
" />
<path d="M58357 34089
L58408 34114
L58509 34114
L58560 34089
L58585 34038
L58585 33836
L58560 33785
L58509 33760
L58408 33760
L58357 33785
L58332 33836
L58332 33886
L58585 33937
" />
<path d="M57876 34114
L57876 33582
" />
<path d="M57876 34089
L57927 34114
L58028 34114
L58079 34089
L58104 34064
L58129 34013
L58129 33861
L58104 33810
L58079 33785
L58028 33760
L57927 33760
L57876 33785
" />
<path d="M57217 34114
L57217 33582
" />
<path d="M57217 33785
L57167 33760
L57065 33760
L57015 33785
L56989 33810
L56964 33861
L56964 34013
L56989 34064
L57015 34089
L57065 34114
L57167 34114
L57217 34089
" />
<path d="M56787 33760
L56660 34114
" />
<path d="M56533 33760
L56660 34114
L56711 34241
L56736 34266
L56787 34292
" />
<text x="60465" y="34840"
textLength="-3129.97" font-size="-709.333" lengthAdjust="spacingAndGlyphs"
text-anchor="start" opacity="0">tinker it</text>
<path d="M60370 34460
L60167 34460
" />
<path d="M60294 34282
L60294 34738
L60269 34789
L60218 34814
L60167 34814
" />
<path d="M59990 34814
L59990 34460
" />
<path d="M59990 34282
L60015 34308
L59990 34333
L59965 34308
L59990 34282
L59990 34333
" />
<path d="M59737 34460
L59737 34814
" />
<path d="M59737 34510
L59711 34485
L59661 34460
L59585 34460
L59534 34485
L59509 34536
L59509 34814
" />
<path d="M59255 34814
L59255 34282
" />
<path d="M59205 34612
L59053 34814
" />
<path d="M59053 34460
L59255 34662
" />
<path d="M58622 34789
L58673 34814
L58774 34814
L58825 34789
L58850 34738
L58850 34536
L58825 34485
L58774 34460
L58673 34460
L58622 34485
L58597 34536
L58597 34586
L58850 34637
" />
<path d="M58369 34814
L58369 34460
" />
<path d="M58369 34561
L58343 34510
L58318 34485
L58267 34460
L58217 34460
" />
<path d="M57634 34814
L57634 34460
" />
<path d="M57634 34282
L57659 34308
L57634 34333
L57609 34308
L57634 34282
L57634 34333
" />
<path d="M57457 34460
L57254 34460
" />
<path d="M57381 34282
L57381 34738
L57355 34789
L57305 34814
L57254 34814
" />
<text x="70465" y="34090"
textLength="-3205.97" font-size="-709.333" lengthAdjust="spacingAndGlyphs"
text-anchor="start" opacity="0">MADE IN</text>
<path d="M70294 34064
L70294 33532
L70117 33912
L69939 33532
L69939 34064
" />
<path d="M69711 33912
L69458 33912
" />
<path d="M69762 34064
L69585 33532
L69407 34064
" />
<path d="M69230 34064
L69230 33532
L69103 33532
L69027 33558
L68977 33608
L68951 33659
L68926 33760
L68926 33836
L68951 33938
L68977 33988
L69027 34039
L69103 34064
L69230 34064
" />
<path d="M68698 33786
L68521 33786
" />
<path d="M68445 34064
L68698 34064
L68698 33532
L68445 33532
" />
<path d="M67811 34064
L67811 33532
" />
<path d="M67558 34064
L67558 33532
L67254 34064
L67254 33532
" />
<text x="70215" y="35090"
textLength="-1913.97" font-size="-709.333" lengthAdjust="spacingAndGlyphs"
text-anchor="start" opacity="0">ITALY</text>
<path d="M70044 35064
L70044 34532
" />
<path d="M69867 34532
L69563 34532
" />
<path d="M69715 35064
L69715 34532
" />
<path d="M69411 34912
L69157 34912
" />
<path d="M69461 35064
L69284 34532
L69107 35064
" />
<path d="M68676 35064
L68929 35064
L68929 34532
" />
<path d="M68397 34811
L68397 35064
" />
<path d="M68575 34532
L68397 34811
L68220 34532
" />
</g>
<g style="fill:#000000; fill-opacity:0.0; 
stroke:#000000; stroke-width:60; stroke-opacity:1; 
stroke-linecap:round; stroke-linejoin:round;">
<path d="M50015 35440
L48915 35440
" />
<path d="M50115 36140
L50115 35540
" />
<path d="M48815 36140
L48815 35540
" />
<path d="M48815 36140 A100 100 0.0 0 0 48915 36240 " />
<path d="M50015 36240 A100 100 0.0 0 0 50115 36140 " />
<path d="M50115 35540 A100 100 0.0 0 0 50015 35440 " />
<path d="M48915 35440 A100 100 0.0 0 0 48815 35540 " />
<path d="M48915 36240
L50015 36240
" />
<g >
</g>
<g >
</g>
<g >
</g>
<g >
</g>
<g >
</g>
<g >
</g>
<g >
</g>
<g >
</g>
<g >
</g>
<g >
</g>
<g >
</g>
<g >
</g>
<g >
</g>
<g >
</g>
<g >
</g>
<g >
</g>
<g >
</g>
<g >
</g>
<g >
</g>
<g >
</g>
<g >
</g>
<g >
</g>
<g >
</g>
<g >
</g>
<g >
</g>
<g >
</g>
<g >
</g>
<g >
</g>
<g >
</g>
<g >
</g>
<g >
</g>
<g >
</g>
<g >
</g>
<g >
</g>
<g >
</g>
<g >
</g>
<g >
</g>
<g >
</g>
<g >
</g>
<g >
</g>
<g >
</g>
<g >
</g>
<g >
</g>
<g >
</g>
<g >
</g>
<g >
</g>
<g >
</g>
<g >
</g>
<g >
</g>
<g >
</g>
<g >
</g>
<g >
</g>
<g >
</g>
<g >
</g>
<g >
</g>
<g >
</g>
<g >
</g>
<g >
</g>
<g >
</g>
<g >
</g>
<g >
</g>
<g >
</g>
<g >
</g>
<g >
</g>
<g >
</g>
<g >
</g>
<g >
</g>
<g >
</g>
<g >
</g>
<g >
</g>
<g >
</g>
<g >
</g>
<g >
</g>
<g >
</g>
<g >
</g>
<g >
</g>
<g >
</g>
<g >
</g>
<g >
</g>
<g >
</g>
<g >
</g>
<g >
</g>
<g >
</g>
<g >
</g>
<g >
</g>
<g >
</g>
<g >
</g>
<g >
</g>
<g >
</g>
<g >
</g>
<g >
</g>
<g >
</g>
<g >
</g>
<g >
</g>
<g >
</g>
<g >
</g>
<g >
</g>
<g >
</g>
<g >
</g>
<g >
</g>
<g >
</g>
<g >
</g>
<g >
</g>
<g >
</g>
<g >
</g>
<g >
</g>
<g >
</g>
<g >
</g>
<g >
</g>
<g >
</g>
<g >
</g>
<g >
</g>
<g >
</g>
<g >
</g>
<g >
</g>
<g >
</g>
<g >
</g>
<g >
</g>
<g >
</g>
<g >
</g>
</g>
<g style="fill:#000000; fill-opacity:0.0; 
stroke:#000000; stroke-width:60; stroke-opacity:1; 
stroke-linecap:round; stroke-linejoin:round;">
</g>
<g style="fill:#000000; fill-opacity:0.0; 
stroke:#000000; stroke-width:47.5; stroke-opacity:1; 
stroke-linecap:round; stroke-linejoin:round;">
<text x="48365" y="35890"
textLength="-3282.88" font-size="-633.333" lengthAdjust="spacingAndGlyphs"
text-anchor="end" opacity="0">GROUND1</text>
<path d="M51404 35415
L51449 35392
L51517 35392
L51585 35415
L51630 35460
L51653 35505
L51675 35595
L51675 35663
L51653 35754
L51630 35799
L51585 35844
L51517 35867
L51472 35867
L51404 35844
L51381 35822
L51381 35663
L51472 35663
" />
<path d="M50906 35867
L51064 35641
" />
<path d="M51178 35867
L51178 35392
L50997 35392
L50951 35415
L50929 35437
L50906 35482
L50906 35550
L50929 35595
L50951 35618
L50997 35641
L51178 35641
" />
<path d="M50612 35392
L50522 35392
L50476 35415
L50431 35460
L50408 35550
L50408 35709
L50431 35799
L50476 35844
L50522 35867
L50612 35867
L50657 35844
L50703 35799
L50725 35709
L50725 35550
L50703 35460
L50657 35415
L50612 35392
" />
<path d="M50205 35392
L50205 35776
L50182 35822
L50160 35844
L50114 35867
L50024 35867
L49979 35844
L49956 35822
L49933 35776
L49933 35392
" />
<path d="M49707 35867
L49707 35392
L49436 35867
L49436 35392
" />
<path d="M49210 35867
L49210 35392
L49097 35392
L49029 35415
L48983 35460
L48961 35505
L48938 35595
L48938 35663
L48961 35754
L48983 35799
L49029 35844
L49097 35867
L49210 35867
" />
<path d="M48486 35867
L48757 35867
" />
<path d="M48622 35867
L48622 35392
L48667 35460
L48712 35505
L48757 35528
" />
<g >
</g>
</g> 
</svg>
