<?xml version="1.0" standalone="no"?>
 <!DOCTYPE svg PUBLIC "-//W3C//DTD SVG 1.1//EN" 
 "http://www.w3.org/Graphics/SVG/1.1/DTD/svg11.dtd"> 
<svg xmlns="http://www.w3.org/2000/svg" version="1.1" 
    width="29.7002cm" height="21.0007cm" viewBox="0 0 116930 82680 ">
<title>SVG Picture created as UNO-TH_Rev3e-B_Paste.svg date 2020/09/01 00:33:08 </title>
  <desc>Picture generated by PCBNEW </desc>
<g style="fill:#000000; fill-opacity:1;stroke:#000000; stroke-opacity:1;
stroke-linecap:round; stroke-linejoin:round; "
 transform="translate(0 0) scale(1 1)">
</g>
<g style="fill:#000000; fill-opacity:0.0; 
stroke:#000000; stroke-width:-0.000393701; stroke-opacity:1; 
stroke-linecap:round; stroke-linejoin:round;">
</g>
<g style="fill:#000000; fill-opacity:0.0; 
stroke:#000000; stroke-width:100; stroke-opacity:1; 
stroke-linecap:round; stroke-linejoin:round;">
<path d="M70365 30840
L70965 31440
" />
<path d="M70965 35940
L71965 36940
" />
<path d="M71965 36940
L71965 49840
" />
<path d="M71965 49840
L70965 50840
" />
<path d="M70965 50840
L70965 51446
" />
<path d="M70571.3 51840 A393.701 393.701 0.0 0 0 70965 51446.3 " />
<path d="M70571 51840
L45358 51840
" />
<path d="M44965 51446.3 A393.701 393.701 0.0 0 0 45358.7 51840 " />
<path d="M44965 51446
L44965 31233
" />
<path d="M45358.7 30840 A393.701 393.701 0.0 0 0 44965 31233.7 " />
<path d="M45358 30840
L70365 30840
" />
<path d="M70965 31440
L70965 35940
" />
<g >
</g>
<g >
</g>
<g >
</g>
<g >
</g>
<g >
</g>
<g >
</g>
<g >
</g>
<g >
</g>
<g >
</g>
<g >
</g>
<g >
</g>
<g >
</g>
<g >
</g>
<g >
</g>
<g >
</g>
<g >
</g>
<g >
</g>
<g >
</g>
<g >
</g>
<g >
</g>
<g >
</g>
<g >
</g>
<g >
</g>
<g >
</g>
<g >
</g>
<g >
</g>
<g >
</g>
<g >
</g>
<g >
</g>
<g >
</g>
<g style="fill:#000000; fill-opacity:0.0; 
stroke:#000000; stroke-width:100; stroke-opacity:1; 
stroke-linecap:round; stroke-linejoin:round;">
</g>
<g style="fill:#000000; fill-opacity:0.0; 
stroke:#000000; stroke-width:0; stroke-opacity:1; 
stroke-linecap:round; stroke-linejoin:round;">
</g>
<g style="fill:#000000; fill-opacity:1.0; 
stroke:#000000; stroke-width:0; stroke-opacity:1; 
stroke-linecap:round; stroke-linejoin:round;">
<path style="fill:#000000; fill-opacity:1.0; 
stroke:#000000; stroke-width:0; stroke-opacity:1; 
stroke-linecap:round; stroke-linejoin:round;fill-rule:evenodd;"
d="M 49353.3,35548.1
49355.3,35548.4
49357.3,35548.9
49359.2,35549.6
49361.1,35550.4
49362.8,35551.5
49364.4,35552.7
49365.9,35554.1
49367.3,35555.6
49368.5,35557.2
49369.6,35558.9
49370.4,35560.8
49371.1,35562.7
49371.6,35564.7
49371.9,35566.7
49372,35568.7
49372,36111.3
49371.9,36113.3
49371.6,36115.3
49371.1,36117.3
49370.4,36119.2
49369.6,36121.1
49368.5,36122.8
49367.3,36124.4
49365.9,36125.9
49364.4,36127.3
49362.8,36128.5
49361.1,36129.6
49359.2,36130.4
49357.3,36131.1
49355.3,36131.6
49353.3,36131.9
49351.3,36132
48978.7,36132
48976.7,36131.9
48974.7,36131.6
48972.7,36131.1
48970.8,36130.4
48968.9,36129.6
48967.2,36128.5
48965.6,36127.3
48964.1,36125.9
48962.7,36124.4
48961.5,36122.8
48960.4,36121.1
48959.6,36119.2
48958.9,36117.3
48958.4,36115.3
48958.1,36113.3
48958,36111.3
48958,35568.7
48958.1,35566.7
48958.4,35564.7
48958.9,35562.7
48959.6,35560.8
48960.4,35558.9
48961.5,35557.2
48962.7,35555.6
48964.1,35554.1
48965.6,35552.7
48967.2,35551.5
48968.9,35550.4
48970.8,35549.6
48972.7,35548.9
48974.7,35548.4
48976.7,35548.1
48978.7,35548
49351.3,35548
Z" /> 
<path style="fill:#000000; fill-opacity:1.0; 
stroke:#000000; stroke-width:0; stroke-opacity:1; 
stroke-linecap:round; stroke-linejoin:round;fill-rule:evenodd;"
d="M 49953.3,35548.1
49955.3,35548.4
49957.3,35548.9
49959.2,35549.6
49961.1,35550.4
49962.8,35551.5
49964.4,35552.7
49965.9,35554.1
49967.3,35555.6
49968.5,35557.2
49969.6,35558.9
49970.4,35560.8
49971.1,35562.7
49971.6,35564.7
49971.9,35566.7
49972,35568.7
49972,36111.3
49971.9,36113.3
49971.6,36115.3
49971.1,36117.3
49970.4,36119.2
49969.6,36121.1
49968.5,36122.8
49967.3,36124.4
49965.9,36125.9
49964.4,36127.3
49962.8,36128.5
49961.1,36129.6
49959.2,36130.4
49957.3,36131.1
49955.3,36131.6
49953.3,36131.9
49951.3,36132
49578.7,36132
49576.7,36131.9
49574.7,36131.6
49572.7,36131.1
49570.8,36130.4
49568.9,36129.6
49567.2,36128.5
49565.6,36127.3
49564.1,36125.9
49562.7,36124.4
49561.5,36122.8
49560.4,36121.1
49559.6,36119.2
49558.9,36117.3
49558.4,36115.3
49558.1,36113.3
49558,36111.3
49558,35568.7
49558.1,35566.7
49558.4,35564.7
49558.9,35562.7
49559.6,35560.8
49560.4,35558.9
49561.5,35557.2
49562.7,35555.6
49564.1,35554.1
49565.6,35552.7
49567.2,35551.5
49568.9,35550.4
49570.8,35549.6
49572.7,35548.9
49574.7,35548.4
49576.7,35548.1
49578.7,35548
49951.3,35548
Z" /> 
</g>
<g >
</g>
<g >
</g>
<g >
</g>
<g >
</g>
<g >
</g>
<g >
</g>
<g >
</g>
<g >
</g>
<g >
</g>
<g >
</g>
<g >
</g>
<g >
</g>
<g >
</g>
<g >
</g>
<g >
</g>
<g >
</g>
<g >
</g>
<g >
</g>
<g >
</g>
<g >
</g>
<g >
</g>
<g >
</g>
<g >
</g>
<g >
</g>
<g >
</g>
<g >
</g>
<g >
</g>
<g >
</g>
<g >
</g>
<g >
</g>
<g >
</g>
<g >
</g>
<g >
</g>
<g >
</g>
<g >
</g>
<g >
</g>
<g >
</g>
<g >
</g>
<g >
</g>
<g >
</g>
<g >
</g>
<g >
</g>
<g >
</g>
<g >
</g>
<g >
</g>
<g >
</g>
<g >
</g>
<g >
</g>
<g >
</g>
<g >
</g>
<g >
</g>
<g >
</g>
<g >
</g>
<g >
</g>
<g >
</g>
<g >
</g>
<g >
</g>
<g >
</g>
<g >
</g>
<g >
</g>
<g >
</g>
<g >
</g>
<g >
</g>
<g >
</g>
<g >
</g>
<g >
</g>
<g >
</g>
<g >
</g>
<g >
</g>
<g >
</g>
<g >
</g>
<g >
</g>
<g >
</g>
<g >
</g>
<g >
</g>
<g >
</g>
<g >
</g>
<g >
</g>
<g >
</g>
<g >
</g>
<g >
</g>
<g >
</g>
<g >
</g>
<g >
</g>
<g >
</g>
<g >
</g>
<g >
</g>
<g >
</g>
<g >
</g>
<g >
</g>
<g >
</g>
<g >
</g>
<g >
</g>
</g> 
</svg>
