<?xml version="1.0" standalone="no"?>
 <!DOCTYPE svg PUBLIC "-//W3C//DTD SVG 1.1//EN" 
 "http://www.w3.org/Graphics/SVG/1.1/DTD/svg11.dtd"> 
<svg xmlns="http://www.w3.org/2000/svg" version="1.1" 
    width="29.7002cm" height="21.0007cm" viewBox="0 0 116930 82680 ">
<title>SVG Picture created as UNO-TH_Rev3e-PTH-drl_map.svg date 2020/09/01 00:32:04 </title>
  <desc>Picture generated by PCBNEW </desc>
<g style="fill:#000000; fill-opacity:1;stroke:#000000; stroke-opacity:1;
stroke-linecap:round; stroke-linejoin:round; "
 transform="translate(0 0) scale(1 1)">
</g>
<g style="fill:#000000; fill-opacity:0.0; 
stroke:#000000; stroke-width:-0.000393701; stroke-opacity:1; 
stroke-linecap:round; stroke-linejoin:round;">
</g>
<g style="fill:#000000; fill-opacity:0.0; 
stroke:#000000; stroke-width:100; stroke-opacity:1; 
stroke-linecap:round; stroke-linejoin:round;">
<path d="M70365 30840
L70965 31440
" />
<path d="M70965 35940
L71965 36940
" />
<path d="M71965 36940
L71965 49840
" />
<path d="M71965 49840
L70965 50840
" />
<path d="M70965 50840
L70965 51446
" />
<path d="M70571.3 51840 A393.701 393.701 0.0 0 0 70965 51446.3 " />
<path d="M70571 51840
L45358 51840
" />
<path d="M44965 51446.3 A393.701 393.701 0.0 0 0 45358.7 51840 " />
<path d="M44965 51446
L44965 31233
" />
<path d="M45358.7 30840 A393.701 393.701 0.0 0 0 44965 31233.7 " />
<path d="M45358 30840
L70365 30840
" />
<path d="M70965 31440
L70965 35940
" />
</g>
<g style="fill:#000000; fill-opacity:0.0; 
stroke:#000000; stroke-width:78.7402; stroke-opacity:1; 
stroke-linecap:round; stroke-linejoin:round;">
<path d="M45845 43220
L46085 43460
" />
<path d="M46085 43220
L45845 43460
" />
<path d="M45845 44870
L46085 45110
" />
<path d="M46085 44870
L45845 45110
" />
<path d="M45845 46470
L46085 46710
" />
<path d="M46085 46470
L45845 46710
" />
<path d="M46845 43720
L47085 43960
" />
<path d="M47085 43720
L46845 43960
" />
<path d="M46845 45970
L47085 46210
" />
<path d="M47085 45970
L46845 46210
" />
<path d="M47595 40370
L47835 40610
" />
<path d="M47835 40370
L47595 40610
" />
<path d="M47595 42220
L47835 42460
" />
<path d="M47835 42220
L47595 42460
" />
<path d="M47845 43970
L48085 44210
" />
<path d="M48085 43970
L47845 44210
" />
<path d="M47845 45720
L48085 45960
" />
<path d="M48085 45720
L47845 45960
" />
<path d="M48345 32955
L48585 33195
" />
<path d="M48585 32955
L48345 33195
" />
<path d="M48345 43220
L48585 43460
" />
<path d="M48585 43220
L48345 43460
" />
<path d="M48345 46470
L48585 46710
" />
<path d="M48585 46470
L48345 46710
" />
<path d="M48395 34870
L48635 35110
" />
<path d="M48635 34870
L48395 35110
" />
<path d="M48745 39570
L48985 39810
" />
<path d="M48985 39570
L48745 39810
" />
<path d="M48945 32070
L49185 32310
" />
<path d="M49185 32070
L48945 32310
" />
<path d="M49345 46720
L49585 46960
" />
<path d="M49585 46720
L49345 46960
" />
<path d="M49595 39370
L49835 39610
" />
<path d="M49835 39370
L49595 39610
" />
<path d="M49595 41970
L49835 42210
" />
<path d="M49835 41970
L49595 42210
" />
<path d="M49595 43270
L49835 43510
" />
<path d="M49835 43270
L49595 43510
" />
<path d="M50395 44970
L50635 45210
" />
<path d="M50635 44970
L50395 45210
" />
<path d="M50745 35220
L50985 35460
" />
<path d="M50985 35220
L50745 35460
" />
<path d="M51405 49010
L51645 49250
" />
<path d="M51645 49010
L51405 49250
" />
<path d="M51495 47120
L51735 47360
" />
<path d="M51735 47120
L51495 47360
" />
<path d="M52295 41420
L52535 41660
" />
<path d="M52535 41420
L52295 41660
" />
<path d="M52295 43420
L52535 43660
" />
<path d="M52535 43420
L52295 43660
" />
<path d="M52305 38450
L52545 38690
" />
<path d="M52545 38450
L52305 38690
" />
<path d="M53345 50610
L53585 50850
" />
<path d="M53585 50610
L53345 50850
" />
<path d="M53495 47170
L53735 47410
" />
<path d="M53735 47170
L53495 47410
" />
<path d="M53595 35570
L53835 35810
" />
<path d="M53835 35570
L53595 35810
" />
<path d="M53645 44470
L53885 44710
" />
<path d="M53885 44470
L53645 44710
" />
<path d="M53745 33370
L53985 33610
" />
<path d="M53985 33370
L53745 33610
" />
<path d="M53905 43130
L54145 43370
" />
<path d="M54145 43130
L53905 43370
" />
<path d="M54645 40820
L54885 41060
" />
<path d="M54885 40820
L54645 41060
" />
<path d="M54695 35720
L54935 35960
" />
<path d="M54935 35720
L54695 35960
" />
<path d="M54745 36920
L54985 37160
" />
<path d="M54985 36920
L54745 37160
" />
<path d="M54795 32370
L55035 32610
" />
<path d="M55035 32370
L54795 32610
" />
<path d="M54895 34720
L55135 34960
" />
<path d="M55135 34720
L54895 34960
" />
<path d="M54895 44120
L55135 44360
" />
<path d="M55135 44120
L54895 44360
" />
<path d="M55015 42060
L55255 42300
" />
<path d="M55255 42060
L55015 42300
" />
<path d="M55045 39970
L55285 40210
" />
<path d="M55285 39970
L55045 40210
" />
<path d="M55445 43270
L55685 43510
" />
<path d="M55685 43270
L55445 43510
" />
<path d="M55545 46120
L55785 46360
" />
<path d="M55785 46120
L55545 46360
" />
<path d="M55795 48570
L56035 48810
" />
<path d="M56035 48570
L55795 48810
" />
<path d="M56345 49270
L56585 49510
" />
<path d="M56585 49270
L56345 49510
" />
<path d="M56645 42520
L56885 42760
" />
<path d="M56885 42520
L56645 42760
" />
<path d="M56695 39320
L56935 39560
" />
<path d="M56935 39320
L56695 39560
" />
<path d="M56745 40170
L56985 40410
" />
<path d="M56985 40170
L56745 40410
" />
<path d="M56805 36900
L57045 37140
" />
<path d="M57045 36900
L56805 37140
" />
<path d="M56905 38210
L57145 38450
" />
<path d="M57145 38210
L56905 38450
" />
<path d="M56995 35520
L57235 35760
" />
<path d="M57235 35520
L56995 35760
" />
<path d="M57095 47570
L57335 47810
" />
<path d="M57335 47570
L57095 47810
" />
<path d="M57235 36470
L57475 36710
" />
<path d="M57475 36470
L57235 36710
" />
<path d="M57235 37670
L57475 37910
" />
<path d="M57475 37670
L57235 37910
" />
<path d="M57395 39870
L57635 40110
" />
<path d="M57635 39870
L57395 40110
" />
<path d="M57595 41920
L57835 42160
" />
<path d="M57835 41920
L57595 42160
" />
<path d="M57795 39420
L58035 39660
" />
<path d="M58035 39420
L57795 39660
" />
<path d="M58045 41470
L58285 41710
" />
<path d="M58285 41470
L58045 41710
" />
<path d="M59145 40570
L59385 40810
" />
<path d="M59385 40570
L59145 40810
" />
<path d="M59695 45270
L59935 45510
" />
<path d="M59935 45270
L59695 45510
" />
<path d="M61055 44660
L61295 44900
" />
<path d="M61295 44660
L61055 44900
" />
<path d="M61905 39310
L62145 39550
" />
<path d="M62145 39310
L61905 39550
" />
<path d="M62045 31720
L62285 31960
" />
<path d="M62285 31720
L62045 31960
" />
<path d="M63370 41645
L63610 41885
" />
<path d="M63610 41645
L63370 41885
" />
<path d="M63405 40210
L63645 40450
" />
<path d="M63645 40210
L63405 40450
" />
<path d="M63845 48470
L64085 48710
" />
<path d="M64085 48470
L63845 48710
" />
<path d="M63845 50720
L64085 50960
" />
<path d="M64085 50720
L63845 50960
" />
<path d="M64070 41595
L64310 41835
" />
<path d="M64310 41595
L64070 41835
" />
<path d="M64945 39120
L65185 39360
" />
<path d="M65185 39120
L64945 39360
" />
<path d="M65095 43220
L65335 43460
" />
<path d="M65335 43220
L65095 43460
" />
<path d="M65495 38270
L65735 38510
" />
<path d="M65735 38270
L65495 38510
" />
<path d="M66345 32370
L66585 32610
" />
<path d="M66585 32370
L66345 32610
" />
<path d="M67025 39390
L67265 39630
" />
<path d="M67265 39390
L67025 39630
" />
<path d="M67145 37920
L67385 38160
" />
<path d="M67385 37920
L67145 38160
" />
<path d="M68195 44520
L68435 44760
" />
<path d="M68435 44520
L68195 44760
" />
<path d="M68245 40720
L68485 40960
" />
<path d="M68485 40720
L68245 40960
" />
<path d="M68245 41970
L68485 42210
" />
<path d="M68485 41970
L68245 42210
" />
<path d="M68945 38770
L69185 39010
" />
<path d="M69185 38770
L68945 39010
" />
<path d="M69195 44920
L69435 45160
" />
<path d="M69435 44920
L69195 45160
" />
<path d="M70305 33060
L70545 33300
" />
<path d="M70545 33060
L70305 33300
" />
<path d="M70305 35760
L70545 36000
" />
<path d="M70545 35760
L70305 36000
" />
<path d="M71305 47510
L71545 47750
" />
<path d="M71545 47510
L71305 47750
" />
<path d="M71315 44750
L71555 44990
" />
<path d="M71555 44750
L71315 44990
" />
<circle cx="64965" cy="50840" r="167.323" /> 
<circle cx="65965" cy="50840" r="167.323" /> 
<circle cx="66965" cy="50840" r="167.323" /> 
<circle cx="67965" cy="50840" r="167.323" /> 
<circle cx="68965" cy="50840" r="167.323" /> 
<circle cx="69965" cy="50840" r="167.323" /> 
<circle cx="55965" cy="50840" r="167.323" /> 
<circle cx="56965" cy="50840" r="167.323" /> 
<circle cx="57965" cy="50840" r="167.323" /> 
<circle cx="58965" cy="50840" r="167.323" /> 
<circle cx="59965" cy="50840" r="167.323" /> 
<circle cx="60965" cy="50840" r="167.323" /> 
<circle cx="61965" cy="50840" r="167.323" /> 
<circle cx="62965" cy="50840" r="167.323" /> 
<circle cx="62965" cy="31840" r="167.323" /> 
<circle cx="63965" cy="31840" r="167.323" /> 
<circle cx="64965" cy="31840" r="167.323" /> 
<circle cx="65965" cy="31840" r="167.323" /> 
<circle cx="66965" cy="31840" r="167.323" /> 
<circle cx="67965" cy="31840" r="167.323" /> 
<circle cx="68965" cy="31840" r="167.323" /> 
<circle cx="69965" cy="31840" r="167.323" /> 
<circle cx="56715" cy="43890" r="167.323" /> 
<circle cx="56715" cy="46890" r="167.323" /> 
<circle cx="57715" cy="43890" r="167.323" /> 
<circle cx="57715" cy="46890" r="167.323" /> 
<circle cx="58715" cy="43890" r="167.323" /> 
<circle cx="58715" cy="46890" r="167.323" /> 
<circle cx="59715" cy="43890" r="167.323" /> 
<circle cx="59715" cy="46890" r="167.323" /> 
<circle cx="60715" cy="43890" r="167.323" /> 
<circle cx="60715" cy="46890" r="167.323" /> 
<circle cx="61715" cy="43890" r="167.323" /> 
<circle cx="61715" cy="46890" r="167.323" /> 
<circle cx="62715" cy="43890" r="167.323" /> 
<circle cx="62715" cy="46890" r="167.323" /> 
<circle cx="63715" cy="43890" r="167.323" /> 
<circle cx="63715" cy="46890" r="167.323" /> 
<circle cx="64715" cy="43890" r="167.323" /> 
<circle cx="64715" cy="46890" r="167.323" /> 
<circle cx="65715" cy="43890" r="167.323" /> 
<circle cx="65715" cy="46890" r="167.323" /> 
<circle cx="66715" cy="43890" r="167.323" /> 
<circle cx="66715" cy="46890" r="167.323" /> 
<circle cx="67715" cy="43890" r="167.323" /> 
<circle cx="67715" cy="46890" r="167.323" /> 
<circle cx="68715" cy="43890" r="167.323" /> 
<circle cx="68715" cy="46890" r="167.323" /> 
<circle cx="69715" cy="43890" r="167.323" /> 
<circle cx="69715" cy="46890" r="167.323" /> 
<circle cx="52365" cy="31840" r="167.323" /> 
<circle cx="53365" cy="31840" r="167.323" /> 
<circle cx="54365" cy="31840" r="167.323" /> 
<circle cx="55365" cy="31840" r="167.323" /> 
<circle cx="56365" cy="31840" r="167.323" /> 
<circle cx="57365" cy="31840" r="167.323" /> 
<circle cx="58365" cy="31840" r="167.323" /> 
<circle cx="59365" cy="31840" r="167.323" /> 
<circle cx="60365" cy="31840" r="167.323" /> 
<circle cx="61365" cy="31840" r="167.323" /> 
<circle cx="51415" cy="41540" r="167.323" /> 
<circle cx="53415" cy="41540" r="167.323" /> 
<path d="M52165 34952
L52165 35327
" />
<path d="M51977 35140
L52352 35140
" />
<path d="M52165 35952
L52165 36327
" />
<path d="M51977 36140
L52352 36140
" />
<path d="M53165 34952
L53165 35327
" />
<path d="M52977 35140
L53352 35140
" />
<path d="M53165 35952
L53165 36327
" />
<path d="M52977 36140
L53352 36140
" />
<path d="M47531 36160
L47531 36534
" />
<path d="M47344 36347
L47718 36347
" />
<path d="M47531 37145
L47531 37519
" />
<path d="M47344 37332
L47718 37332
" />
<path d="M48319 36160
L48319 36534
" />
<path d="M48132 36347
L48506 36347
" />
<path d="M48319 37145
L48319 37519
" />
<path d="M48132 37332
L48506 37332
" />
<path d="M51165 32952
L51165 33327
" />
<path d="M50977 33140
L51352 33140
" />
<path d="M51165 33952
L51165 34327
" />
<path d="M50977 34140
L51352 34140
" />
<path d="M52165 32952
L52165 33327
" />
<path d="M51977 33140
L52352 33140
" />
<path d="M52165 33952
L52165 34327
" />
<path d="M51977 34140
L52352 34140
" />
<path d="M53165 32952
L53165 33327
" />
<path d="M52977 33140
L53352 33140
" />
<path d="M53165 33952
L53165 34327
" />
<path d="M52977 34140
L53352 34140
" />
<path d="M70015 39652
L70015 40027
" />
<path d="M69827 39840
L70202 39840
" />
<path d="M70015 40652
L70015 41027
" />
<path d="M69827 40840
L70202 40840
" />
<path d="M70015 41652
L70015 42027
" />
<path d="M69827 41840
L70202 41840
" />
<path d="M71015 39652
L71015 40027
" />
<path d="M70827 39840
L71202 39840
" />
<path d="M71015 40652
L71015 41027
" />
<path d="M70827 40840
L71202 40840
" />
<path d="M71015 41652
L71015 42027
" />
<path d="M70827 41840
L71202 41840
" />
<path style="fill:#000000; fill-opacity:0.0; 
stroke:#000000; stroke-width:78.7402; stroke-opacity:1; 
stroke-linecap:round; stroke-linejoin:round;fill:none"
d="M 47386,48451
47386,48089
47024,48089
47024,48451
Z" /> 
<path style="fill:#000000; fill-opacity:0.0; 
stroke:#000000; stroke-width:78.7402; stroke-opacity:1; 
stroke-linecap:round; stroke-linejoin:round;fill:none"
d="M 47386,48751
47386,48389
47024,48389
47024,48751
Z" /> 
<path style="fill:#000000; fill-opacity:0.0; 
stroke:#000000; stroke-width:78.7402; stroke-opacity:1; 
stroke-linecap:round; stroke-linejoin:round;fill:none"
d="M 47386,49051
47386,48689
47024,48689
47024,49051
Z" /> 
<path style="fill:#000000; fill-opacity:0.0; 
stroke:#000000; stroke-width:78.7402; stroke-opacity:1; 
stroke-linecap:round; stroke-linejoin:round;fill:none"
d="M 48266,50721
48266,50359
47904,50359
47904,50721
Z" /> 
<path style="fill:#000000; fill-opacity:0.0; 
stroke:#000000; stroke-width:78.7402; stroke-opacity:1; 
stroke-linecap:round; stroke-linejoin:round;fill:none"
d="M 48566,50721
48566,50359
48204,50359
48204,50721
Z" /> 
<path style="fill:#000000; fill-opacity:0.0; 
stroke:#000000; stroke-width:78.7402; stroke-opacity:1; 
stroke-linecap:round; stroke-linejoin:round;fill:none"
d="M 48866,50721
48866,50359
48504,50359
48504,50721
Z" /> 
<path style="fill:#000000; fill-opacity:0.0; 
stroke:#000000; stroke-width:78.7402; stroke-opacity:1; 
stroke-linecap:round; stroke-linejoin:round;fill:none"
d="M 49746,48451
49746,48089
49384,48089
49384,48451
Z" /> 
<path style="fill:#000000; fill-opacity:0.0; 
stroke:#000000; stroke-width:78.7402; stroke-opacity:1; 
stroke-linecap:round; stroke-linejoin:round;fill:none"
d="M 49746,48751
49746,48389
49384,48389
49384,48751
Z" /> 
<path style="fill:#000000; fill-opacity:0.0; 
stroke:#000000; stroke-width:78.7402; stroke-opacity:1; 
stroke-linecap:round; stroke-linejoin:round;fill:none"
d="M 49746,49051
49746,48689
49384,48689
49384,49051
Z" /> 
<path style="fill:#000000; fill-opacity:0.0; 
stroke:#000000; stroke-width:78.7402; stroke-opacity:1; 
stroke-linecap:round; stroke-linejoin:round;fill:none"
d="M 46465,34910.9
46898.1,34477.8
46465,34044.7
46031.9,34477.8
Z" /> 
<path style="fill:#000000; fill-opacity:0.0; 
stroke:#000000; stroke-width:78.7402; stroke-opacity:1; 
stroke-linecap:round; stroke-linejoin:round;fill:none"
d="M 46465,39635.3
46898.1,39202.2
46465,38769.1
46031.9,39202.2
Z" /> 
</g>
<g style="fill:#000000; fill-opacity:0.0; 
stroke:#000000; stroke-width:118.11; stroke-opacity:1; 
stroke-linecap:round; stroke-linejoin:round;">
<text x="45702.4" y="53779.8"
textLength="8720.47" font-size="1574.8" lengthAdjust="spacingAndGlyphs"
text-anchor="start" opacity="0">Drill Map:</text>
<path d="M46042 53723
L46042 52542
L46323 52542
L46492 52598
L46605 52711
L46661 52823
L46717 53048
L46717 53217
L46661 53442
L46605 53554
L46492 53667
L46323 53723
L46042 53723
" />
<path d="M47223 53723
L47223 52936
" />
<path d="M47223 53161
L47280 53048
L47336 52992
L47448 52936
L47561 52936
" />
<path d="M47954 53723
L47954 52936
" />
<path d="M47954 52542
L47898 52598
L47954 52654
L48011 52598
L47954 52542
L47954 52654
" />
<path d="M48686 53723
L48573 53667
L48517 53554
L48517 52542
" />
<path d="M49304 53723
L49192 53667
L49136 53554
L49136 52542
" />
<path d="M50654 53723
L50654 52542
L51048 53386
L51441 52542
L51441 53723
" />
<path d="M52510 53723
L52510 53104
L52454 52992
L52341 52936
L52116 52936
L52004 52992
" />
<path d="M52510 53667
L52398 53723
L52116 53723
L52004 53667
L51948 53554
L51948 53442
L52004 53329
L52116 53273
L52398 53273
L52510 53217
" />
<path d="M53073 52936
L53073 54117
" />
<path d="M53073 52992
L53185 52936
L53410 52936
L53522 52992
L53579 53048
L53635 53161
L53635 53498
L53579 53611
L53522 53667
L53410 53723
L53185 53723
L53073 53667
" />
<path d="M54141 53611
L54197 53667
L54141 53723
L54085 53667
L54141 53611
L54141 53723
" />
<path d="M54141 52992
L54197 53048
L54141 53104
L54085 53048
L54141 52992
L54141 53104
" />
<path d="M44674 55549
L44914 55789
" />
<path d="M44914 55549
L44674 55789
" />
<text x="45702.4" y="56260.1"
textLength="26552.3" font-size="1574.8" lengthAdjust="spacingAndGlyphs"
text-anchor="start" opacity="0">0.61mm / 0.024" (82 holes)</text>
<path d="M46267 55022
L46380 55022
L46492 55078
L46548 55135
L46605 55247
L46661 55472
L46661 55753
L46605 55978
L46548 56091
L46492 56147
L46380 56203
L46267 56203
L46155 56147
L46098 56091
L46042 55978
L45986 55753
L45986 55472
L46042 55247
L46098 55135
L46155 55078
L46267 55022
" />
<path d="M47167 56091
L47223 56147
L47167 56203
L47111 56147
L47167 56091
L47167 56203
" />
<path d="M48236 55022
L48011 55022
L47898 55078
L47842 55135
L47729 55303
L47673 55528
L47673 55978
L47729 56091
L47786 56147
L47898 56203
L48123 56203
L48236 56147
L48292 56091
L48348 55978
L48348 55697
L48292 55585
L48236 55528
L48123 55472
L47898 55472
L47786 55528
L47729 55585
L47673 55697
" />
<path d="M49473 56203
L48798 56203
" />
<path d="M49136 56203
L49136 55022
L49023 55191
L48911 55303
L48798 55360
" />
<path d="M49979 56203
L49979 55416
" />
<path d="M49979 55528
L50035 55472
L50148 55416
L50317 55416
L50429 55472
L50485 55585
L50485 56203
" />
<path d="M50485 55585
L50542 55472
L50654 55416
L50823 55416
L50935 55472
L50992 55585
L50992 56203
" />
<path d="M51554 56203
L51554 55416
" />
<path d="M51554 55528
L51610 55472
L51723 55416
L51891 55416
L52004 55472
L52060 55585
L52060 56203
" />
<path d="M52060 55585
L52116 55472
L52229 55416
L52398 55416
L52510 55472
L52566 55585
L52566 56203
" />
<path d="M54872 54966
L53860 56485
" />
<path d="M56391 55022
L56503 55022
L56616 55078
L56672 55135
L56728 55247
L56785 55472
L56785 55753
L56728 55978
L56672 56091
L56616 56147
L56503 56203
L56391 56203
L56278 56147
L56222 56091
L56166 55978
L56110 55753
L56110 55472
L56166 55247
L56222 55135
L56278 55078
L56391 55022
" />
<path d="M57291 56091
L57347 56147
L57291 56203
L57235 56147
L57291 56091
L57291 56203
" />
<path d="M58078 55022
L58191 55022
L58303 55078
L58359 55135
L58416 55247
L58472 55472
L58472 55753
L58416 55978
L58359 56091
L58303 56147
L58191 56203
L58078 56203
L57966 56147
L57909 56091
L57853 55978
L57797 55753
L57797 55472
L57853 55247
L57909 55135
L57966 55078
L58078 55022
" />
<path d="M58922 55135
L58978 55078
L59091 55022
L59372 55022
L59484 55078
L59540 55135
L59597 55247
L59597 55360
L59540 55528
L58866 56203
L59597 56203
" />
<path d="M60609 55416
L60609 56203
" />
<path d="M60328 54966
L60047 55810
L60778 55810
" />
<path d="M61172 55022
L61172 55247
" />
<path d="M61621 55022
L61621 55247
" />
<path d="M63365 56653
L63309 56597
L63196 56428
L63140 56316
L63084 56147
L63028 55866
L63028 55641
L63084 55360
L63140 55191
L63196 55078
L63309 54910
L63365 54854
" />
<path d="M63984 55528
L63871 55472
L63815 55416
L63759 55303
L63759 55247
L63815 55135
L63871 55078
L63984 55022
L64209 55022
L64321 55078
L64377 55135
L64434 55247
L64434 55303
L64377 55416
L64321 55472
L64209 55528
L63984 55528
L63871 55585
L63815 55641
L63759 55753
L63759 55978
L63815 56091
L63871 56147
L63984 56203
L64209 56203
L64321 56147
L64377 56091
L64434 55978
L64434 55753
L64377 55641
L64321 55585
L64209 55528
" />
<path d="M64884 55135
L64940 55078
L65052 55022
L65334 55022
L65446 55078
L65502 55135
L65558 55247
L65558 55360
L65502 55528
L64827 56203
L65558 56203
" />
<path d="M66965 56203
L66965 55022
" />
<path d="M67471 56203
L67471 55585
L67414 55472
L67302 55416
L67133 55416
L67021 55472
L66965 55528
" />
<path d="M68202 56203
L68089 56147
L68033 56091
L67977 55978
L67977 55641
L68033 55528
L68089 55472
L68202 55416
L68371 55416
L68483 55472
L68539 55528
L68596 55641
L68596 55978
L68539 56091
L68483 56147
L68371 56203
L68202 56203
" />
<path d="M69271 56203
L69158 56147
L69102 56035
L69102 55022
" />
<path d="M70170 56147
L70058 56203
L69833 56203
L69720 56147
L69664 56035
L69664 55585
L69720 55472
L69833 55416
L70058 55416
L70170 55472
L70227 55585
L70227 55697
L69664 55810
" />
<path d="M70677 56147
L70789 56203
L71014 56203
L71127 56147
L71183 56035
L71183 55978
L71127 55866
L71014 55810
L70845 55810
L70733 55753
L70677 55641
L70677 55585
L70733 55472
L70845 55416
L71014 55416
L71127 55472
" />
<path d="M71576 56653
L71633 56597
L71745 56428
L71801 56316
L71858 56147
L71914 55866
L71914 55641
L71858 55360
L71801 55191
L71745 55078
L71633 54910
L71576 54854
" />
<circle cx="44747.7" cy="57228.6" r="167.323" /> 
<text x="45702.4" y="57819.1"
textLength="26552.3" font-size="1574.8" lengthAdjust="spacingAndGlyphs"
text-anchor="start" opacity="0">0.85mm / 0.033" (62 holes)</text>
<path d="M46267 56581
L46380 56581
L46492 56638
L46548 56694
L46605 56806
L46661 57031
L46661 57312
L46605 57537
L46548 57650
L46492 57706
L46380 57762
L46267 57762
L46155 57706
L46098 57650
L46042 57537
L45986 57312
L45986 57031
L46042 56806
L46098 56694
L46155 56638
L46267 56581
" />
<path d="M47167 57650
L47223 57706
L47167 57762
L47111 57706
L47167 57650
L47167 57762
" />
<path d="M47898 57087
L47786 57031
L47729 56975
L47673 56863
L47673 56806
L47729 56694
L47786 56638
L47898 56581
L48123 56581
L48236 56638
L48292 56694
L48348 56806
L48348 56863
L48292 56975
L48236 57031
L48123 57087
L47898 57087
L47786 57144
L47729 57200
L47673 57312
L47673 57537
L47729 57650
L47786 57706
L47898 57762
L48123 57762
L48236 57706
L48292 57650
L48348 57537
L48348 57312
L48292 57200
L48236 57144
L48123 57087
" />
<path d="M49417 56581
L48854 56581
L48798 57144
L48854 57087
L48967 57031
L49248 57031
L49361 57087
L49417 57144
L49473 57256
L49473 57537
L49417 57650
L49361 57706
L49248 57762
L48967 57762
L48854 57706
L48798 57650
" />
<path d="M49979 57762
L49979 56975
" />
<path d="M49979 57087
L50035 57031
L50148 56975
L50317 56975
L50429 57031
L50485 57144
L50485 57762
" />
<path d="M50485 57144
L50542 57031
L50654 56975
L50823 56975
L50935 57031
L50992 57144
L50992 57762
" />
<path d="M51554 57762
L51554 56975
" />
<path d="M51554 57087
L51610 57031
L51723 56975
L51891 56975
L52004 57031
L52060 57144
L52060 57762
" />
<path d="M52060 57144
L52116 57031
L52229 56975
L52398 56975
L52510 57031
L52566 57144
L52566 57762
" />
<path d="M54872 56525
L53860 58044
" />
<path d="M56391 56581
L56503 56581
L56616 56638
L56672 56694
L56728 56806
L56785 57031
L56785 57312
L56728 57537
L56672 57650
L56616 57706
L56503 57762
L56391 57762
L56278 57706
L56222 57650
L56166 57537
L56110 57312
L56110 57031
L56166 56806
L56222 56694
L56278 56638
L56391 56581
" />
<path d="M57291 57650
L57347 57706
L57291 57762
L57235 57706
L57291 57650
L57291 57762
" />
<path d="M58078 56581
L58191 56581
L58303 56638
L58359 56694
L58416 56806
L58472 57031
L58472 57312
L58416 57537
L58359 57650
L58303 57706
L58191 57762
L58078 57762
L57966 57706
L57909 57650
L57853 57537
L57797 57312
L57797 57031
L57853 56806
L57909 56694
L57966 56638
L58078 56581
" />
<path d="M58866 56581
L59597 56581
L59203 57031
L59372 57031
L59484 57087
L59540 57144
L59597 57256
L59597 57537
L59540 57650
L59484 57706
L59372 57762
L59034 57762
L58922 57706
L58866 57650
" />
<path d="M59990 56581
L60722 56581
L60328 57031
L60497 57031
L60609 57087
L60665 57144
L60722 57256
L60722 57537
L60665 57650
L60609 57706
L60497 57762
L60159 57762
L60047 57706
L59990 57650
" />
<path d="M61172 56581
L61172 56806
" />
<path d="M61621 56581
L61621 56806
" />
<path d="M63365 58212
L63309 58156
L63196 57987
L63140 57875
L63084 57706
L63028 57425
L63028 57200
L63084 56919
L63140 56750
L63196 56638
L63309 56469
L63365 56413
" />
<path d="M64321 56581
L64096 56581
L63984 56638
L63927 56694
L63815 56863
L63759 57087
L63759 57537
L63815 57650
L63871 57706
L63984 57762
L64209 57762
L64321 57706
L64377 57650
L64434 57537
L64434 57256
L64377 57144
L64321 57087
L64209 57031
L63984 57031
L63871 57087
L63815 57144
L63759 57256
" />
<path d="M64884 56694
L64940 56638
L65052 56581
L65334 56581
L65446 56638
L65502 56694
L65558 56806
L65558 56919
L65502 57087
L64827 57762
L65558 57762
" />
<path d="M66965 57762
L66965 56581
" />
<path d="M67471 57762
L67471 57144
L67414 57031
L67302 56975
L67133 56975
L67021 57031
L66965 57087
" />
<path d="M68202 57762
L68089 57706
L68033 57650
L67977 57537
L67977 57200
L68033 57087
L68089 57031
L68202 56975
L68371 56975
L68483 57031
L68539 57087
L68596 57200
L68596 57537
L68539 57650
L68483 57706
L68371 57762
L68202 57762
" />
<path d="M69271 57762
L69158 57706
L69102 57594
L69102 56581
" />
<path d="M70170 57706
L70058 57762
L69833 57762
L69720 57706
L69664 57594
L69664 57144
L69720 57031
L69833 56975
L70058 56975
L70170 57031
L70227 57144
L70227 57256
L69664 57369
" />
<path d="M70677 57706
L70789 57762
L71014 57762
L71127 57706
L71183 57594
L71183 57537
L71127 57425
L71014 57369
L70845 57369
L70733 57312
L70677 57200
L70677 57144
L70733 57031
L70845 56975
L71014 56975
L71127 57031
" />
<path d="M71576 58212
L71633 58156
L71745 57987
L71801 57875
L71858 57706
L71914 57425
L71914 57200
L71858 56919
L71801 56750
L71745 56638
L71633 56469
L71576 56413
" />
<path d="M44727 58600
L44727 58974
" />
<path d="M44540 58787
L44914 58787
" />
<text x="45702.4" y="59378.2"
textLength="26552.3" font-size="1574.8" lengthAdjust="spacingAndGlyphs"
text-anchor="start" opacity="0">0.95mm / 0.037" (20 holes)</text>
<path d="M46267 58140
L46380 58140
L46492 58197
L46548 58253
L46605 58365
L46661 58590
L46661 58872
L46605 59096
L46548 59209
L46492 59265
L46380 59321
L46267 59321
L46155 59265
L46098 59209
L46042 59096
L45986 58872
L45986 58590
L46042 58365
L46098 58253
L46155 58197
L46267 58140
" />
<path d="M47167 59209
L47223 59265
L47167 59321
L47111 59265
L47167 59209
L47167 59321
" />
<path d="M47786 59321
L48011 59321
L48123 59265
L48179 59209
L48292 59040
L48348 58815
L48348 58365
L48292 58253
L48236 58197
L48123 58140
L47898 58140
L47786 58197
L47729 58253
L47673 58365
L47673 58647
L47729 58759
L47786 58815
L47898 58872
L48123 58872
L48236 58815
L48292 58759
L48348 58647
" />
<path d="M49417 58140
L48854 58140
L48798 58703
L48854 58647
L48967 58590
L49248 58590
L49361 58647
L49417 58703
L49473 58815
L49473 59096
L49417 59209
L49361 59265
L49248 59321
L48967 59321
L48854 59265
L48798 59209
" />
<path d="M49979 59321
L49979 58534
" />
<path d="M49979 58647
L50035 58590
L50148 58534
L50317 58534
L50429 58590
L50485 58703
L50485 59321
" />
<path d="M50485 58703
L50542 58590
L50654 58534
L50823 58534
L50935 58590
L50992 58703
L50992 59321
" />
<path d="M51554 59321
L51554 58534
" />
<path d="M51554 58647
L51610 58590
L51723 58534
L51891 58534
L52004 58590
L52060 58703
L52060 59321
" />
<path d="M52060 58703
L52116 58590
L52229 58534
L52398 58534
L52510 58590
L52566 58703
L52566 59321
" />
<path d="M54872 58084
L53860 59603
" />
<path d="M56391 58140
L56503 58140
L56616 58197
L56672 58253
L56728 58365
L56785 58590
L56785 58872
L56728 59096
L56672 59209
L56616 59265
L56503 59321
L56391 59321
L56278 59265
L56222 59209
L56166 59096
L56110 58872
L56110 58590
L56166 58365
L56222 58253
L56278 58197
L56391 58140
" />
<path d="M57291 59209
L57347 59265
L57291 59321
L57235 59265
L57291 59209
L57291 59321
" />
<path d="M58078 58140
L58191 58140
L58303 58197
L58359 58253
L58416 58365
L58472 58590
L58472 58872
L58416 59096
L58359 59209
L58303 59265
L58191 59321
L58078 59321
L57966 59265
L57909 59209
L57853 59096
L57797 58872
L57797 58590
L57853 58365
L57909 58253
L57966 58197
L58078 58140
" />
<path d="M58866 58140
L59597 58140
L59203 58590
L59372 58590
L59484 58647
L59540 58703
L59597 58815
L59597 59096
L59540 59209
L59484 59265
L59372 59321
L59034 59321
L58922 59265
L58866 59209
" />
<path d="M59990 58140
L60778 58140
L60272 59321
" />
<path d="M61172 58140
L61172 58365
" />
<path d="M61621 58140
L61621 58365
" />
<path d="M63365 59771
L63309 59715
L63196 59546
L63140 59434
L63084 59265
L63028 58984
L63028 58759
L63084 58478
L63140 58309
L63196 58197
L63309 58028
L63365 57972
" />
<path d="M63759 58253
L63815 58197
L63927 58140
L64209 58140
L64321 58197
L64377 58253
L64434 58365
L64434 58478
L64377 58647
L63702 59321
L64434 59321
" />
<path d="M65165 58140
L65277 58140
L65390 58197
L65446 58253
L65502 58365
L65558 58590
L65558 58872
L65502 59096
L65446 59209
L65390 59265
L65277 59321
L65165 59321
L65052 59265
L64996 59209
L64940 59096
L64884 58872
L64884 58590
L64940 58365
L64996 58253
L65052 58197
L65165 58140
" />
<path d="M66965 59321
L66965 58140
" />
<path d="M67471 59321
L67471 58703
L67414 58590
L67302 58534
L67133 58534
L67021 58590
L66965 58647
" />
<path d="M68202 59321
L68089 59265
L68033 59209
L67977 59096
L67977 58759
L68033 58647
L68089 58590
L68202 58534
L68371 58534
L68483 58590
L68539 58647
L68596 58759
L68596 59096
L68539 59209
L68483 59265
L68371 59321
L68202 59321
" />
<path d="M69271 59321
L69158 59265
L69102 59153
L69102 58140
" />
<path d="M70170 59265
L70058 59321
L69833 59321
L69720 59265
L69664 59153
L69664 58703
L69720 58590
L69833 58534
L70058 58534
L70170 58590
L70227 58703
L70227 58815
L69664 58928
" />
<path d="M70677 59265
L70789 59321
L71014 59321
L71127 59265
L71183 59153
L71183 59096
L71127 58984
L71014 58928
L70845 58928
L70733 58872
L70677 58759
L70677 58703
L70733 58590
L70845 58534
L71014 58534
L71127 58590
" />
<path d="M71576 59771
L71633 59715
L71745 59546
L71801 59434
L71858 59265
L71914 58984
L71914 58759
L71858 58478
L71801 58309
L71745 58197
L71633 58028
L71576 57972
" />
<path style="fill:#000000; fill-opacity:0.0; 
stroke:#000000; stroke-width:118.11; stroke-opacity:1; 
stroke-linecap:round; stroke-linejoin:round;fill:none"
d="M 44840,60527.6
44840,60165.7
44478.1,60165.7
44478.1,60527.6
Z" /> 
<text x="45702.4" y="60937.2"
textLength="25427.4" font-size="1574.8" lengthAdjust="spacingAndGlyphs"
text-anchor="start" opacity="0">1.30mm / 0.051" (9 holes)</text>
<path d="M46661 60881
L45986 60881
" />
<path d="M46323 60881
L46323 59699
L46211 59868
L46098 59981
L45986 60037
" />
<path d="M47167 60768
L47223 60824
L47167 60881
L47111 60824
L47167 60768
L47167 60881
" />
<path d="M47617 59699
L48348 59699
L47954 60149
L48123 60149
L48236 60206
L48292 60262
L48348 60374
L48348 60656
L48292 60768
L48236 60824
L48123 60881
L47786 60881
L47673 60824
L47617 60768
" />
<path d="M49079 59699
L49192 59699
L49304 59756
L49361 59812
L49417 59924
L49473 60149
L49473 60431
L49417 60656
L49361 60768
L49304 60824
L49192 60881
L49079 60881
L48967 60824
L48911 60768
L48854 60656
L48798 60431
L48798 60149
L48854 59924
L48911 59812
L48967 59756
L49079 59699
" />
<path d="M49979 60881
L49979 60093
" />
<path d="M49979 60206
L50035 60149
L50148 60093
L50317 60093
L50429 60149
L50485 60262
L50485 60881
" />
<path d="M50485 60262
L50542 60149
L50654 60093
L50823 60093
L50935 60149
L50992 60262
L50992 60881
" />
<path d="M51554 60881
L51554 60093
" />
<path d="M51554 60206
L51610 60149
L51723 60093
L51891 60093
L52004 60149
L52060 60262
L52060 60881
" />
<path d="M52060 60262
L52116 60149
L52229 60093
L52398 60093
L52510 60149
L52566 60262
L52566 60881
" />
<path d="M54872 59643
L53860 61162
" />
<path d="M56391 59699
L56503 59699
L56616 59756
L56672 59812
L56728 59924
L56785 60149
L56785 60431
L56728 60656
L56672 60768
L56616 60824
L56503 60881
L56391 60881
L56278 60824
L56222 60768
L56166 60656
L56110 60431
L56110 60149
L56166 59924
L56222 59812
L56278 59756
L56391 59699
" />
<path d="M57291 60768
L57347 60824
L57291 60881
L57235 60824
L57291 60768
L57291 60881
" />
<path d="M58078 59699
L58191 59699
L58303 59756
L58359 59812
L58416 59924
L58472 60149
L58472 60431
L58416 60656
L58359 60768
L58303 60824
L58191 60881
L58078 60881
L57966 60824
L57909 60768
L57853 60656
L57797 60431
L57797 60149
L57853 59924
L57909 59812
L57966 59756
L58078 59699
" />
<path d="M59540 59699
L58978 59699
L58922 60262
L58978 60206
L59091 60149
L59372 60149
L59484 60206
L59540 60262
L59597 60374
L59597 60656
L59540 60768
L59484 60824
L59372 60881
L59091 60881
L58978 60824
L58922 60768
" />
<path d="M60722 60881
L60047 60881
" />
<path d="M60384 60881
L60384 59699
L60272 59868
L60159 59981
L60047 60037
" />
<path d="M61172 59699
L61172 59924
" />
<path d="M61621 59699
L61621 59924
" />
<path d="M63365 61330
L63309 61274
L63196 61105
L63140 60993
L63084 60824
L63028 60543
L63028 60318
L63084 60037
L63140 59868
L63196 59756
L63309 59587
L63365 59531
" />
<path d="M63871 60881
L64096 60881
L64209 60824
L64265 60768
L64377 60599
L64434 60374
L64434 59924
L64377 59812
L64321 59756
L64209 59699
L63984 59699
L63871 59756
L63815 59812
L63759 59924
L63759 60206
L63815 60318
L63871 60374
L63984 60431
L64209 60431
L64321 60374
L64377 60318
L64434 60206
" />
<path d="M65840 60881
L65840 59699
" />
<path d="M66346 60881
L66346 60262
L66290 60149
L66177 60093
L66008 60093
L65896 60149
L65840 60206
" />
<path d="M67077 60881
L66965 60824
L66908 60768
L66852 60656
L66852 60318
L66908 60206
L66965 60149
L67077 60093
L67246 60093
L67358 60149
L67414 60206
L67471 60318
L67471 60656
L67414 60768
L67358 60824
L67246 60881
L67077 60881
" />
<path d="M68146 60881
L68033 60824
L67977 60712
L67977 59699
" />
<path d="M69046 60824
L68933 60881
L68708 60881
L68596 60824
L68539 60712
L68539 60262
L68596 60149
L68708 60093
L68933 60093
L69046 60149
L69102 60262
L69102 60374
L68539 60487
" />
<path d="M69552 60824
L69664 60881
L69889 60881
L70002 60824
L70058 60712
L70058 60656
L70002 60543
L69889 60487
L69720 60487
L69608 60431
L69552 60318
L69552 60262
L69608 60149
L69720 60093
L69889 60093
L70002 60149
" />
<path d="M70452 61330
L70508 61274
L70620 61105
L70677 60993
L70733 60824
L70789 60543
L70789 60318
L70733 60037
L70677 59868
L70620 59756
L70508 59587
L70452 59531
" />
<path style="fill:#000000; fill-opacity:0.0; 
stroke:#000000; stroke-width:118.11; stroke-opacity:1; 
stroke-linecap:round; stroke-linejoin:round;fill:none"
d="M 44481.9,62338.8
44915,61905.7
44481.9,61472.7
44048.9,61905.7
Z" /> 
<text x="45702.4" y="62496.3"
textLength="25427.4" font-size="1574.8" lengthAdjust="spacingAndGlyphs"
text-anchor="start" opacity="0">2.20mm / 0.087" (2 holes)</text>
<path d="M45986 61371
L46042 61315
L46155 61258
L46436 61258
L46548 61315
L46605 61371
L46661 61483
L46661 61596
L46605 61765
L45930 62440
L46661 62440
" />
<path d="M47167 62327
L47223 62383
L47167 62440
L47111 62383
L47167 62327
L47167 62440
" />
<path d="M47673 61371
L47729 61315
L47842 61258
L48123 61258
L48236 61315
L48292 61371
L48348 61483
L48348 61596
L48292 61765
L47617 62440
L48348 62440
" />
<path d="M49079 61258
L49192 61258
L49304 61315
L49361 61371
L49417 61483
L49473 61708
L49473 61990
L49417 62215
L49361 62327
L49304 62383
L49192 62440
L49079 62440
L48967 62383
L48911 62327
L48854 62215
L48798 61990
L48798 61708
L48854 61483
L48911 61371
L48967 61315
L49079 61258
" />
<path d="M49979 62440
L49979 61652
" />
<path d="M49979 61765
L50035 61708
L50148 61652
L50317 61652
L50429 61708
L50485 61821
L50485 62440
" />
<path d="M50485 61821
L50542 61708
L50654 61652
L50823 61652
L50935 61708
L50992 61821
L50992 62440
" />
<path d="M51554 62440
L51554 61652
" />
<path d="M51554 61765
L51610 61708
L51723 61652
L51891 61652
L52004 61708
L52060 61821
L52060 62440
" />
<path d="M52060 61821
L52116 61708
L52229 61652
L52398 61652
L52510 61708
L52566 61821
L52566 62440
" />
<path d="M54872 61202
L53860 62721
" />
<path d="M56391 61258
L56503 61258
L56616 61315
L56672 61371
L56728 61483
L56785 61708
L56785 61990
L56728 62215
L56672 62327
L56616 62383
L56503 62440
L56391 62440
L56278 62383
L56222 62327
L56166 62215
L56110 61990
L56110 61708
L56166 61483
L56222 61371
L56278 61315
L56391 61258
" />
<path d="M57291 62327
L57347 62383
L57291 62440
L57235 62383
L57291 62327
L57291 62440
" />
<path d="M58078 61258
L58191 61258
L58303 61315
L58359 61371
L58416 61483
L58472 61708
L58472 61990
L58416 62215
L58359 62327
L58303 62383
L58191 62440
L58078 62440
L57966 62383
L57909 62327
L57853 62215
L57797 61990
L57797 61708
L57853 61483
L57909 61371
L57966 61315
L58078 61258
" />
<path d="M59147 61765
L59034 61708
L58978 61652
L58922 61540
L58922 61483
L58978 61371
L59034 61315
L59147 61258
L59372 61258
L59484 61315
L59540 61371
L59597 61483
L59597 61540
L59540 61652
L59484 61708
L59372 61765
L59147 61765
L59034 61821
L58978 61877
L58922 61990
L58922 62215
L58978 62327
L59034 62383
L59147 62440
L59372 62440
L59484 62383
L59540 62327
L59597 62215
L59597 61990
L59540 61877
L59484 61821
L59372 61765
" />
<path d="M59990 61258
L60778 61258
L60272 62440
" />
<path d="M61172 61258
L61172 61483
" />
<path d="M61621 61258
L61621 61483
" />
<path d="M63365 62890
L63309 62833
L63196 62665
L63140 62552
L63084 62383
L63028 62102
L63028 61877
L63084 61596
L63140 61427
L63196 61315
L63309 61146
L63365 61090
" />
<path d="M63759 61371
L63815 61315
L63927 61258
L64209 61258
L64321 61315
L64377 61371
L64434 61483
L64434 61596
L64377 61765
L63702 62440
L64434 62440
" />
<path d="M65840 62440
L65840 61258
" />
<path d="M66346 62440
L66346 61821
L66290 61708
L66177 61652
L66008 61652
L65896 61708
L65840 61765
" />
<path d="M67077 62440
L66965 62383
L66908 62327
L66852 62215
L66852 61877
L66908 61765
L66965 61708
L67077 61652
L67246 61652
L67358 61708
L67414 61765
L67471 61877
L67471 62215
L67414 62327
L67358 62383
L67246 62440
L67077 62440
" />
<path d="M68146 62440
L68033 62383
L67977 62271
L67977 61258
" />
<path d="M69046 62383
L68933 62440
L68708 62440
L68596 62383
L68539 62271
L68539 61821
L68596 61708
L68708 61652
L68933 61652
L69046 61708
L69102 61821
L69102 61933
L68539 62046
" />
<path d="M69552 62383
L69664 62440
L69889 62440
L70002 62383
L70058 62271
L70058 62215
L70002 62102
L69889 62046
L69720 62046
L69608 61990
L69552 61877
L69552 61821
L69608 61708
L69720 61652
L69889 61652
L70002 61708
" />
<path d="M70452 62890
L70508 62833
L70620 62665
L70677 62552
L70733 62383
L70789 62102
L70789 61877
L70733 61596
L70677 61427
L70620 61315
L70508 61146
L70452 61090
" />
</g> 
</svg>
