<?xml version="1.0" encoding="utf-8"?>
<!-- Generator: Adobe Illustrator 17.0.0, SVG Export Plug-In . SVG Version: 6.00 Build 0)  -->
<!DOCTYPE svg PUBLIC "-//W3C//DTD SVG 1.1//EN" "http://www.w3.org/Graphics/SVG/1.1/DTD/svg11.dtd">
<svg version="1.1" id="Camada_1" xmlns="http://www.w3.org/2000/svg" xmlns:xlink="http://www.w3.org/1999/xlink" x="0px" y="0px"
	 width="841.895px" height="595.295px" viewBox="0 0 841.895 595.295" enable-background="new 0 0 841.895 595.295"
	 xml:space="preserve">
<title>SVG Picture created as UNO-TH_Rev3e-F_SilkS.svg date 2020/09/01 00:33:08</title>
<desc>Picture generated by PCBNEW</desc>
<g transform="translate(0 0) scale(1 1)">
</g>
<g>
	<path fill-opacity="0" d="M506.628,222.048l4.32,4.32"/>
	<path fill-opacity="0" d="M510.948,258.768l7.2,7.2"/>
	<path fill-opacity="0" d="M518.148,265.968v92.88"/>
	<path fill-opacity="0" d="M518.148,358.848l-7.2,7.2"/>
	<path fill-opacity="0" d="M510.948,366.048v4.363"/>
	<path fill-opacity="0" d="M508.113,373.248c1.566,0,2.835-1.269,2.835-2.835l0,0"/>
	<path fill-opacity="0" d="M508.111,373.248H326.577"/>
	<path fill-opacity="0" d="M323.748,370.413c0,1.566,1.269,2.835,2.835,2.835"/>
	<path fill-opacity="0" d="M323.748,370.411V224.877"/>
	<path fill-opacity="0" d="M326.582,222.048c-1.566,0-2.835,1.269-2.835,2.835"/>
	<path fill-opacity="0" d="M326.577,222.048h180.05"/>
	<path fill-opacity="0" d="M510.948,226.368v32.4"/>
</g>
<g>
	<circle fill-opacity="0" stroke="#000000" stroke-linecap="round" stroke-linejoin="round" cx="386.388" cy="235.008" r="0.72"/>
</g>
<g opacity="0" enable-background="new    ">
	<path fill-opacity="0" stroke="#000000" stroke-linecap="round" stroke-linejoin="round" d="M500.313,288.201h-1.958"/>
	<path fill-opacity="0" stroke="#000000" stroke-linecap="round" stroke-linejoin="round" d="M499.334,288.201v-3.42l-0.324,0.49
		l-0.324,0.324l-0.331,0.158"/>
</g>
<g>
	<path fill-opacity="0" stroke="#000000" stroke-linecap="round" stroke-linejoin="round" d="M499.372,299.311v3.6"/>
	<path fill-opacity="0" stroke="#000000" stroke-linecap="round" stroke-linejoin="round" d="M511.972,304.711h-10.8"/>
	<path fill-opacity="0" stroke="#000000" stroke-linecap="round" stroke-linejoin="round" d="M513.772,302.911l-1.8,1.8"/>
	<path fill-opacity="0" stroke="#000000" stroke-linecap="round" stroke-linejoin="round" d="M513.772,299.311v3.6"/>
	<path fill-opacity="0" stroke="#000000" stroke-linecap="round" stroke-linejoin="round" d="M511.972,297.511l1.8,1.8"/>
	<path fill-opacity="0" stroke="#000000" stroke-linecap="round" stroke-linejoin="round" d="M499.372,302.911l1.8,1.8"/>
	<path fill-opacity="0" stroke="#000000" stroke-linecap="round" stroke-linejoin="round" d="M501.172,297.511l-1.8,1.8"/>
	<path fill-opacity="0" stroke="#000000" stroke-linecap="round" stroke-linejoin="round" d="M499.372,284.911v3.6"/>
	<path fill-opacity="0" stroke="#000000" stroke-linecap="round" stroke-linejoin="round" d="M499.372,292.111v3.6"/>
	<path fill-opacity="0" stroke="#000000" stroke-linecap="round" stroke-linejoin="round" d="M511.972,297.511h-10.8"/>
	<path fill-opacity="0" stroke="#000000" stroke-linecap="round" stroke-linejoin="round" d="M511.972,290.311h-10.8"/>
	<path fill-opacity="0" stroke="#000000" stroke-linecap="round" stroke-linejoin="round" d="M513.772,295.711l-1.8,1.8"/>
	<path fill-opacity="0" stroke="#000000" stroke-linecap="round" stroke-linejoin="round" d="M513.772,292.111v3.6"/>
	<path fill-opacity="0" stroke="#000000" stroke-linecap="round" stroke-linejoin="round" d="M511.972,290.311l1.8,1.8"/>
	<path fill-opacity="0" stroke="#000000" stroke-linecap="round" stroke-linejoin="round" d="M513.772,288.511l-1.8,1.8"/>
	<path fill-opacity="0" stroke="#000000" stroke-linecap="round" stroke-linejoin="round" d="M513.772,284.911v3.6"/>
	<path fill-opacity="0" stroke="#000000" stroke-linecap="round" stroke-linejoin="round" d="M511.972,283.111l1.8,1.8"/>
	<path fill-opacity="0" stroke="#000000" stroke-linecap="round" stroke-linejoin="round" d="M501.172,283.111h10.8"/>
	<path fill-opacity="0" stroke="#000000" stroke-linecap="round" stroke-linejoin="round" d="M499.372,295.711l1.8,1.8"/>
	<path fill-opacity="0" stroke="#000000" stroke-linecap="round" stroke-linejoin="round" d="M501.172,290.311l-1.8,1.8"/>
	<path fill-opacity="0" stroke="#000000" stroke-linecap="round" stroke-linejoin="round" d="M499.372,288.511l1.8,1.8"/>
	<path fill-opacity="0" stroke="#000000" stroke-linecap="round" stroke-linejoin="round" d="M501.172,283.111l-1.8,1.8"/>
</g>
<g>
	<circle fill-opacity="0" stroke="#000000" stroke-linecap="round" stroke-linejoin="round" cx="374.597" cy="279.366" r="0.896"/>
</g>
<g>
	<path fill-opacity="0" stroke="#000000" stroke-linecap="round" stroke-linejoin="round" d="M369.052,234.871h-3.6"/>
	<path fill-opacity="0" stroke="#000000" stroke-linecap="round" stroke-linejoin="round" d="M363.652,247.471v-10.8"/>
	<path fill-opacity="0" stroke="#000000" stroke-linecap="round" stroke-linejoin="round" d="M365.452,249.271l-1.8-1.8"/>
	<path fill-opacity="0" stroke="#000000" stroke-linecap="round" stroke-linejoin="round" d="M369.052,249.271h-3.6"/>
	<path fill-opacity="0" stroke="#000000" stroke-linecap="round" stroke-linejoin="round" d="M370.852,247.471l-1.8,1.8"/>
	<path fill-opacity="0" stroke="#000000" stroke-linecap="round" stroke-linejoin="round" d="M365.452,234.871l-1.8,1.8"/>
	<path fill-opacity="0" stroke="#000000" stroke-linecap="round" stroke-linejoin="round" d="M370.852,236.671l-1.8-1.8"/>
	<path fill-opacity="0" stroke="#000000" stroke-linecap="round" stroke-linejoin="round" d="M383.452,234.871h-3.6"/>
	<path fill-opacity="0" stroke="#000000" stroke-linecap="round" stroke-linejoin="round" d="M376.252,234.871h-3.6"/>
	<path fill-opacity="0" stroke="#000000" stroke-linecap="round" stroke-linejoin="round" d="M370.852,247.471v-10.8"/>
	<path fill-opacity="0" stroke="#000000" stroke-linecap="round" stroke-linejoin="round" d="M378.052,247.471v-10.8"/>
	<path fill-opacity="0" stroke="#000000" stroke-linecap="round" stroke-linejoin="round" d="M372.652,249.271l-1.8-1.8"/>
	<path fill-opacity="0" stroke="#000000" stroke-linecap="round" stroke-linejoin="round" d="M376.252,249.271h-3.6"/>
	<path fill-opacity="0" stroke="#000000" stroke-linecap="round" stroke-linejoin="round" d="M378.052,247.471l-1.8,1.8"/>
	<path fill-opacity="0" stroke="#000000" stroke-linecap="round" stroke-linejoin="round" d="M379.852,249.271l-1.8-1.8"/>
	<path fill-opacity="0" stroke="#000000" stroke-linecap="round" stroke-linejoin="round" d="M383.452,249.271h-3.6"/>
	<path fill-opacity="0" stroke="#000000" stroke-linecap="round" stroke-linejoin="round" d="M385.252,247.471l-1.8,1.8"/>
	<path fill-opacity="0" stroke="#000000" stroke-linecap="round" stroke-linejoin="round" d="M385.252,236.671v10.8"/>
	<path fill-opacity="0" stroke="#000000" stroke-linecap="round" stroke-linejoin="round" d="M372.652,234.871l-1.8,1.8"/>
	<path fill-opacity="0" stroke="#000000" stroke-linecap="round" stroke-linejoin="round" d="M378.052,236.671l-1.8-1.8"/>
	<path fill-opacity="0" stroke="#000000" stroke-linecap="round" stroke-linejoin="round" d="M379.852,234.871l-1.8,1.8"/>
	<path fill-opacity="0" stroke="#000000" stroke-linecap="round" stroke-linejoin="round" d="M385.252,236.671l-1.8-1.8"/>
</g>
<g>
	<path fill-opacity="0" stroke="#000000" stroke-linecap="round" stroke-linejoin="round" d="M397.852,292.831h7.92"/>
	<path fill-opacity="0" stroke="#000000" stroke-linecap="round" stroke-linejoin="round" d="M397.132,297.871v-4.32"/>
	<path fill-opacity="0" stroke="#000000" stroke-linecap="round" stroke-linejoin="round" d="M406.492,297.871v-4.32"/>
	<path fill-opacity="0" stroke="#000000" stroke-linecap="round" stroke-linejoin="round" d="M405.772,298.591
		c0.398,0,0.72-0.322,0.72-0.72"/>
	<path fill-opacity="0" stroke="#000000" stroke-linecap="round" stroke-linejoin="round" d="M397.132,297.871
		c0,0.398,0.322,0.72,0.72,0.72"/>
	<path fill-opacity="0" stroke="#000000" stroke-linecap="round" stroke-linejoin="round" d="M397.852,292.831
		c-0.398,0-0.72,0.322-0.72,0.72"/>
	<path fill-opacity="0" stroke="#000000" stroke-linecap="round" stroke-linejoin="round" d="M406.492,293.551
		c0-0.398-0.322-0.72-0.72-0.72"/>
	<path fill-opacity="0" stroke="#000000" stroke-linecap="round" stroke-linejoin="round" d="M405.772,298.591h-7.92"/>
	<path fill-opacity="0" stroke="#000000" stroke-linecap="round" stroke-linejoin="round" d="M385.252,261.871v-3.6"/>
	<path fill-opacity="0" stroke="#000000" stroke-linecap="round" stroke-linejoin="round" d="M385.252,254.671v-3.6"/>
	<path fill-opacity="0" stroke="#000000" stroke-linecap="round" stroke-linejoin="round" d="M372.652,249.271h10.8"/>
	<path fill-opacity="0" stroke="#000000" stroke-linecap="round" stroke-linejoin="round" d="M372.652,256.471h10.8"/>
	<path fill-opacity="0" stroke="#000000" stroke-linecap="round" stroke-linejoin="round" d="M370.852,251.071l1.8-1.8"/>
	<path fill-opacity="0" stroke="#000000" stroke-linecap="round" stroke-linejoin="round" d="M370.852,254.671v-3.6"/>
	<path fill-opacity="0" stroke="#000000" stroke-linecap="round" stroke-linejoin="round" d="M372.652,256.471l-1.8-1.8"/>
	<path fill-opacity="0" stroke="#000000" stroke-linecap="round" stroke-linejoin="round" d="M370.852,258.271l1.8-1.8"/>
	<path fill-opacity="0" stroke="#000000" stroke-linecap="round" stroke-linejoin="round" d="M370.852,261.871v-3.6"/>
	<path fill-opacity="0" stroke="#000000" stroke-linecap="round" stroke-linejoin="round" d="M372.652,263.671l-1.8-1.8"/>
	<path fill-opacity="0" stroke="#000000" stroke-linecap="round" stroke-linejoin="round" d="M383.452,263.671h-10.8"/>
	<path fill-opacity="0" stroke="#000000" stroke-linecap="round" stroke-linejoin="round" d="M385.252,251.071l-1.8-1.8"/>
	<path fill-opacity="0" stroke="#000000" stroke-linecap="round" stroke-linejoin="round" d="M383.452,256.471l1.8-1.8"/>
	<path fill-opacity="0" stroke="#000000" stroke-linecap="round" stroke-linejoin="round" d="M385.252,258.271l-1.8-1.8"/>
	<path fill-opacity="0" stroke="#000000" stroke-linecap="round" stroke-linejoin="round" d="M383.452,263.671l1.8-1.8"/>
</g>
</svg>
