<?xml version="1.0" standalone="no"?>
 <!DOCTYPE svg PUBLIC "-//W3C//DTD SVG 1.1//EN" 
 "http://www.w3.org/Graphics/SVG/1.1/DTD/svg11.dtd"> 
<svg xmlns="http://www.w3.org/2000/svg" version="1.1" 
    width="29.7002cm" height="21.0007cm" viewBox="0 0 116930 82680 ">
<title>SVG Picture created as UNO-TH_Rev3e-NPTH-drl_map.svg date 2020/09/01 00:32:04 </title>
  <desc>Picture generated by PCBNEW </desc>
<g style="fill:#000000; fill-opacity:1;stroke:#000000; stroke-opacity:1;
stroke-linecap:round; stroke-linejoin:round; "
 transform="translate(0 0) scale(1 1)">
</g>
<g style="fill:#000000; fill-opacity:0.0; 
stroke:#000000; stroke-width:-0.000393701; stroke-opacity:1; 
stroke-linecap:round; stroke-linejoin:round;">
</g>
<g style="fill:#000000; fill-opacity:0.0; 
stroke:#000000; stroke-width:100; stroke-opacity:1; 
stroke-linecap:round; stroke-linejoin:round;">
<path d="M70365 30840
L70965 31440
" />
<path d="M70965 35940
L71965 36940
" />
<path d="M71965 36940
L71965 49840
" />
<path d="M71965 49840
L70965 50840
" />
<path d="M70965 50840
L70965 51446
" />
<path d="M70571.3 51840 A393.701 393.701 0.0 0 0 70965 51446.3 " />
<path d="M70571 51840
L45358 51840
" />
<path d="M44965 51446.3 A393.701 393.701 0.0 0 0 45358.7 51840 " />
<path d="M44965 51446
L44965 31233
" />
<path d="M45358.7 30840 A393.701 393.701 0.0 0 0 44965 31233.7 " />
<path d="M45358 30840
L70365 30840
" />
<path d="M70965 31440
L70965 35940
" />
</g>
<g style="fill:#000000; fill-opacity:0.0; 
stroke:#000000; stroke-width:78.7402; stroke-opacity:1; 
stroke-linecap:round; stroke-linejoin:round;">
<path d="M49835 50210
L51094 51469
" />
<path d="M51094 50210
L49835 51469
" />
<path d="M70335 48210
L71594 49469
" />
<path d="M71594 48210
L70335 49469
" />
<path d="M50335 31210
L51594 32469
" />
<path d="M51594 31210
L50335 32469
" />
<path d="M70335 37210
L71594 38469
" />
<path d="M71594 37210
L70335 38469
" />
</g>
<g style="fill:#000000; fill-opacity:0.0; 
stroke:#000000; stroke-width:118.11; stroke-opacity:1; 
stroke-linecap:round; stroke-linejoin:round;">
<text x="45702.4" y="53779.8"
textLength="8779.53" font-size="1574.8" lengthAdjust="spacingAndGlyphs"
text-anchor="start" opacity="0">Drill Map:</text>
<path d="M46042 53723
L46042 52542
L46323 52542
L46492 52598
L46605 52711
L46661 52823
L46717 53048
L46717 53217
L46661 53442
L46605 53554
L46492 53667
L46323 53723
L46042 53723
" />
<path d="M47223 53723
L47223 52936
" />
<path d="M47223 53161
L47280 53048
L47336 52992
L47448 52936
L47561 52936
" />
<path d="M47954 53723
L47954 52936
" />
<path d="M47954 52542
L47898 52598
L47954 52654
L48011 52598
L47954 52542
L47954 52654
" />
<path d="M48686 53723
L48573 53667
L48517 53554
L48517 52542
" />
<path d="M49304 53723
L49192 53667
L49136 53554
L49136 52542
" />
<path d="M50654 53723
L50654 52542
L51048 53386
L51441 52542
L51441 53723
" />
<path d="M52510 53723
L52510 53104
L52454 52992
L52341 52936
L52116 52936
L52004 52992
" />
<path d="M52510 53667
L52398 53723
L52116 53723
L52004 53667
L51948 53554
L51948 53442
L52004 53329
L52116 53273
L52398 53273
L52510 53217
" />
<path d="M53073 52936
L53073 54117
" />
<path d="M53073 52992
L53185 52936
L53410 52936
L53522 52992
L53579 53048
L53635 53161
L53635 53498
L53579 53611
L53522 53667
L53410 53723
L53185 53723
L53073 53667
" />
<path d="M54141 53611
L54197 53667
L54141 53723
L54085 53667
L54141 53611
L54141 53723
" />
<path d="M54141 52992
L54197 53048
L54141 53104
L54085 53048
L54141 52992
L54141 53104
" />
<path d="M43655 55039
L44914 56299
" />
<path d="M44914 55039
L43655 56299
" />
<text x="45702.4" y="56260.1"
textLength="37126" font-size="1574.8" lengthAdjust="spacingAndGlyphs"
text-anchor="start" opacity="0">3.20mm / 0.126" (4 holes) (not plated)</text>
<path d="M45930 55022
L46661 55022
L46267 55472
L46436 55472
L46548 55528
L46605 55585
L46661 55697
L46661 55978
L46605 56091
L46548 56147
L46436 56203
L46098 56203
L45986 56147
L45930 56091
" />
<path d="M47167 56091
L47223 56147
L47167 56203
L47111 56147
L47167 56091
L47167 56203
" />
<path d="M47673 55135
L47729 55078
L47842 55022
L48123 55022
L48236 55078
L48292 55135
L48348 55247
L48348 55360
L48292 55528
L47617 56203
L48348 56203
" />
<path d="M49079 55022
L49192 55022
L49304 55078
L49361 55135
L49417 55247
L49473 55472
L49473 55753
L49417 55978
L49361 56091
L49304 56147
L49192 56203
L49079 56203
L48967 56147
L48911 56091
L48854 55978
L48798 55753
L48798 55472
L48854 55247
L48911 55135
L48967 55078
L49079 55022
" />
<path d="M49979 56203
L49979 55416
" />
<path d="M49979 55528
L50035 55472
L50148 55416
L50317 55416
L50429 55472
L50485 55585
L50485 56203
" />
<path d="M50485 55585
L50542 55472
L50654 55416
L50823 55416
L50935 55472
L50992 55585
L50992 56203
" />
<path d="M51554 56203
L51554 55416
" />
<path d="M51554 55528
L51610 55472
L51723 55416
L51891 55416
L52004 55472
L52060 55585
L52060 56203
" />
<path d="M52060 55585
L52116 55472
L52229 55416
L52398 55416
L52510 55472
L52566 55585
L52566 56203
" />
<path d="M54872 54966
L53860 56485
" />
<path d="M56391 55022
L56503 55022
L56616 55078
L56672 55135
L56728 55247
L56785 55472
L56785 55753
L56728 55978
L56672 56091
L56616 56147
L56503 56203
L56391 56203
L56278 56147
L56222 56091
L56166 55978
L56110 55753
L56110 55472
L56166 55247
L56222 55135
L56278 55078
L56391 55022
" />
<path d="M57291 56091
L57347 56147
L57291 56203
L57235 56147
L57291 56091
L57291 56203
" />
<path d="M58472 56203
L57797 56203
" />
<path d="M58134 56203
L58134 55022
L58022 55191
L57909 55303
L57797 55360
" />
<path d="M58922 55135
L58978 55078
L59091 55022
L59372 55022
L59484 55078
L59540 55135
L59597 55247
L59597 55360
L59540 55528
L58866 56203
L59597 56203
" />
<path d="M60609 55022
L60384 55022
L60272 55078
L60215 55135
L60103 55303
L60047 55528
L60047 55978
L60103 56091
L60159 56147
L60272 56203
L60497 56203
L60609 56147
L60665 56091
L60722 55978
L60722 55697
L60665 55585
L60609 55528
L60497 55472
L60272 55472
L60159 55528
L60103 55585
L60047 55697
" />
<path d="M61172 55022
L61172 55247
" />
<path d="M61621 55022
L61621 55247
" />
<path d="M63365 56653
L63309 56597
L63196 56428
L63140 56316
L63084 56147
L63028 55866
L63028 55641
L63084 55360
L63140 55191
L63196 55078
L63309 54910
L63365 54854
" />
<path d="M64321 55416
L64321 56203
" />
<path d="M64040 54966
L63759 55810
L64490 55810
" />
<path d="M65840 56203
L65840 55022
" />
<path d="M66346 56203
L66346 55585
L66290 55472
L66177 55416
L66008 55416
L65896 55472
L65840 55528
" />
<path d="M67077 56203
L66965 56147
L66908 56091
L66852 55978
L66852 55641
L66908 55528
L66965 55472
L67077 55416
L67246 55416
L67358 55472
L67414 55528
L67471 55641
L67471 55978
L67414 56091
L67358 56147
L67246 56203
L67077 56203
" />
<path d="M68146 56203
L68033 56147
L67977 56035
L67977 55022
" />
<path d="M69046 56147
L68933 56203
L68708 56203
L68596 56147
L68539 56035
L68539 55585
L68596 55472
L68708 55416
L68933 55416
L69046 55472
L69102 55585
L69102 55697
L68539 55810
" />
<path d="M69552 56147
L69664 56203
L69889 56203
L70002 56147
L70058 56035
L70058 55978
L70002 55866
L69889 55810
L69720 55810
L69608 55753
L69552 55641
L69552 55585
L69608 55472
L69720 55416
L69889 55416
L70002 55472
" />
<path d="M70452 56653
L70508 56597
L70620 56428
L70677 56316
L70733 56147
L70789 55866
L70789 55641
L70733 55360
L70677 55191
L70620 55078
L70508 54910
L70452 54854
" />
<path d="M72589 56653
L72533 56597
L72420 56428
L72364 56316
L72308 56147
L72251 55866
L72251 55641
L72308 55360
L72364 55191
L72420 55078
L72533 54910
L72589 54854
" />
<path d="M73039 55416
L73039 56203
" />
<path d="M73039 55528
L73095 55472
L73208 55416
L73376 55416
L73489 55472
L73545 55585
L73545 56203
" />
<path d="M74276 56203
L74164 56147
L74107 56091
L74051 55978
L74051 55641
L74107 55528
L74164 55472
L74276 55416
L74445 55416
L74557 55472
L74614 55528
L74670 55641
L74670 55978
L74614 56091
L74557 56147
L74445 56203
L74276 56203
" />
<path d="M75007 55416
L75457 55416
" />
<path d="M75176 55022
L75176 56035
L75232 56147
L75345 56203
L75457 56203
" />
<path d="M76751 55416
L76751 56597
" />
<path d="M76751 55472
L76863 55416
L77088 55416
L77201 55472
L77257 55528
L77313 55641
L77313 55978
L77257 56091
L77201 56147
L77088 56203
L76863 56203
L76751 56147
" />
<path d="M77988 56203
L77876 56147
L77819 56035
L77819 55022
" />
<path d="M78944 56203
L78944 55585
L78888 55472
L78776 55416
L78551 55416
L78438 55472
" />
<path d="M78944 56147
L78832 56203
L78551 56203
L78438 56147
L78382 56035
L78382 55922
L78438 55810
L78551 55753
L78832 55753
L78944 55697
" />
<path d="M79338 55416
L79788 55416
" />
<path d="M79507 55022
L79507 56035
L79563 56147
L79675 56203
L79788 56203
" />
<path d="M80632 56147
L80519 56203
L80294 56203
L80182 56147
L80125 56035
L80125 55585
L80182 55472
L80294 55416
L80519 55416
L80632 55472
L80688 55585
L80688 55697
L80125 55810
" />
<path d="M81700 56203
L81700 55022
" />
<path d="M81700 56147
L81588 56203
L81363 56203
L81250 56147
L81194 56091
L81138 55978
L81138 55641
L81194 55528
L81250 55472
L81363 55416
L81588 55416
L81700 55472
" />
<path d="M82150 56653
L82206 56597
L82319 56428
L82375 56316
L82431 56147
L82488 55866
L82488 55641
L82431 55360
L82375 55191
L82319 55078
L82206 54910
L82150 54854
" />
</g> 
</svg>
