M48
; DRILL file {KiCad (5.1.5)-3} date 1.9.2020 00:31:12
; FORMAT={-:-/ absolute / inch / decimal}
; #@! TF.CreationDate,2020-09-01T00:31:12-03:00
; #@! TF.GenerationSoftware,Kicad,Pcbnew,(5.1.5)-3
; #@! TF.FileFunction,Plated,1,2,PTH
FMAT,2
INCH
T1C0.0240
T2C0.0335
T3C0.0374
T4C0.0512
T5C0.0866
%
G90
G05
T1
X4.5965Y-4.334
X4.5965Y-4.499
X4.5965Y-4.659
X4.6965Y-4.384
X4.6965Y-4.609
X4.7715Y-4.049
X4.7715Y-4.234
X4.7965Y-4.409
X4.7965Y-4.584
X4.8465Y-3.3076
X4.8465Y-4.334
X4.8465Y-4.659
X4.8515Y-3.499
X4.8865Y-3.969
X4.9065Y-3.219
X4.9465Y-4.684
X4.9715Y-3.949
X4.9715Y-4.209
X4.9715Y-4.339
X5.0515Y-4.509
X5.0865Y-3.534
X5.1525Y-4.913
X5.1615Y-4.724
X5.2415Y-4.154
X5.2415Y-4.354
X5.2425Y-3.857
X5.3465Y-5.073
X5.3615Y-4.729
X5.3715Y-3.569
X5.3765Y-4.459
X5.3865Y-3.349
X5.4025Y-4.325
X5.4765Y-4.094
X5.4815Y-3.584
X5.4865Y-3.704
X5.4915Y-3.249
X5.5015Y-3.484
X5.5015Y-4.424
X5.5135Y-4.218
X5.5165Y-4.009
X5.5565Y-4.339
X5.5665Y-4.624
X5.5915Y-4.869
X5.6465Y-4.939
X5.6765Y-4.264
X5.6815Y-3.944
X5.6865Y-4.029
X5.6925Y-3.702
X5.7025Y-3.833
X5.7115Y-3.564
X5.7215Y-4.769
X5.7355Y-3.659
X5.7355Y-3.779
X5.7515Y-3.999
X5.7715Y-4.204
X5.7915Y-3.954
X5.8165Y-4.159
X5.9265Y-4.069
X5.9815Y-4.539
X6.1175Y-4.478
X6.2025Y-3.943
X6.2165Y-3.184
X6.349Y-4.1765
X6.3525Y-4.033
X6.3965Y-4.859
X6.3965Y-5.084
X6.419Y-4.1715
X6.5065Y-3.924
X6.5215Y-4.334
X6.5615Y-3.839
X6.6465Y-3.249
X6.7145Y-3.951
X6.7265Y-3.804
X6.8315Y-4.464
X6.8365Y-4.084
X6.8365Y-4.209
X6.9065Y-3.889
X6.9315Y-4.504
X7.0425Y-3.318
X7.0425Y-3.588
X7.1425Y-4.763
X7.1435Y-4.487
T2
X6.4965Y-5.084
X6.5965Y-5.084
X6.6965Y-5.084
X6.7965Y-5.084
X6.8965Y-5.084
X6.9965Y-5.084
X5.5965Y-5.084
X5.6965Y-5.084
X5.7965Y-5.084
X5.8965Y-5.084
X5.9965Y-5.084
X6.0965Y-5.084
X6.1965Y-5.084
X6.2965Y-5.084
X6.2965Y-3.184
X6.3965Y-3.184
X6.4965Y-3.184
X6.5965Y-3.184
X6.6965Y-3.184
X6.7965Y-3.184
X6.8965Y-3.184
X6.9965Y-3.184
X5.6715Y-4.389
X5.6715Y-4.689
X5.7715Y-4.389
X5.7715Y-4.689
X5.8715Y-4.389
X5.8715Y-4.689
X5.9715Y-4.389
X5.9715Y-4.689
X6.0715Y-4.389
X6.0715Y-4.689
X6.1715Y-4.389
X6.1715Y-4.689
X6.2715Y-4.389
X6.2715Y-4.689
X6.3715Y-4.389
X6.3715Y-4.689
X6.4715Y-4.389
X6.4715Y-4.689
X6.5715Y-4.389
X6.5715Y-4.689
X6.6715Y-4.389
X6.6715Y-4.689
X6.7715Y-4.389
X6.7715Y-4.689
X6.8715Y-4.389
X6.8715Y-4.689
X6.9715Y-4.389
X6.9715Y-4.689
X5.2365Y-3.184
X5.3365Y-3.184
X5.4365Y-3.184
X5.5365Y-3.184
X5.6365Y-3.184
X5.7365Y-3.184
X5.8365Y-3.184
X5.9365Y-3.184
X6.0365Y-3.184
X6.1365Y-3.184
X5.1415Y-4.154
X5.3415Y-4.154
T3
X5.2165Y-3.514
X5.2165Y-3.614
X5.3165Y-3.514
X5.3165Y-3.614
X4.7532Y-3.6348
X4.7532Y-3.7332
X4.8319Y-3.6348
X4.8319Y-3.7332
X5.1165Y-3.314
X5.1165Y-3.414
X5.2165Y-3.314
X5.2165Y-3.414
X5.3165Y-3.314
X5.3165Y-3.414
X7.0015Y-3.984
X7.0015Y-4.084
X7.0015Y-4.184
X7.1015Y-3.984
X7.1015Y-4.084
X7.1015Y-4.184
T4
X4.7205Y-4.827
X4.7205Y-4.857
X4.7205Y-4.887
X4.8085Y-5.054
X4.8385Y-5.054
X4.8685Y-5.054
X4.9565Y-4.827
X4.9565Y-4.857
X4.9565Y-4.887
T5
X4.6465Y-3.4478
X4.6465Y-3.9202
T0
M30
